<svg xmlns="http://www.w3.org/2000/svg" width="533.333" height="533.333" viewBox="0 0 400 400" preserveAspectRatio="xMidYMid meet"><path d="M133.9 85.3c-1.4 1.2-3.2 4.2-3.9 6.7l-2 5.5c-.4.5-.6 2-.5 3.2s-.2 2-.5 1.8c-.9-.6-2.2 4.6-2.5 9.7-.2 2.9.2 4.1 1.9 5.1 4.2 2.7 6.4 2.7 8.3-.2.9-1.4 1.6-2.9 1.5-3.4-.1-.4.3-.7 1-.7.6 0 .8-.3.5-.6-.3-.4-.2-1.5.4-2.6s1.3-3.2 1.5-4.6c.3-1.5 1-3.2 1.6-3.9s.8-1.3.5-1.3.3-2.3 1.3-5c1.1-3 1.4-4.7.7-4.3s-.6-.1.2-1c.9-1.1 1-1.7.2-1.7-.6 0-1.1-.6-1.1-1.3 0-1.2-3.9-3.7-5.8-3.7-.4 0-1.9 1-3.3 2.3zM72 97.2c0 .5-.4.6-1 .3-.5-.3-1 .1-1 .9 0 .9-.4 1.6-1 1.6-.5 0-1 .5-1 1.1 0 .5.6.7 1.3.3.9-.5.9-.4.1.5-1.3 1.4-.7 5.1.7 5.1.5 0 .9.4.9 1 0 1 2.1 3.8 5.8 7.6 1.3 1.3 2 2.4 1.7 2.4s.3.9 1.3 1.9l4.4 5c1.5 1.7 3.4 3.1 4.2 3.1 2.3 0 6.6-2.2 6.7-3.4.6-4.8.5-5.9-.7-7.1-.8-.7-1.4-1.6-1.4-1.9 0-.7-2.6-3.9-5.8-7.2-1.3-1.3-2-2.4-1.6-2.4.5 0-.1-.7-1.2-1.6-1-.8-1.3-1.2-.5-.8.9.5 1.2.3.7-.4-.4-.7-1.4-1.2-2.2-1.2s-1.4-.5-1.4-1.1c0-1.9-2.8-3.9-5.9-4.3-1.7-.2-3.1.1-3.1.6z"/><path d="M275.7 113.6c-.4.4-3.7.8-7.4.9-8 .3-12.8 1.1-15.7 2.7-1.1.6-2.3 1.1-2.6 1.1-1-.2-9.6 4-11.9 5.8-1.3 1-2.7 1.6-3.2 1.3s-.8-.1-.7.4c.3 1-4 5.4-6.9 7-.9.6-2.6.7-3.7.3-1.2-.4-3.1-.6-4.3-.5-1.3 0-2.3-.2-2.3-.7 0-.4-.9-.7-2-.6s-2 .5-2 1-.8.3-1.7-.4c-1.5-1.2-1.6-1.2-.8.1s.7 1.3-.8.1c-1.4-1.1-1.7-1.1-1.7 0 0 .9-.3 1-.8.4-.8-1.2-4.2-1.6-4.2-.5 0 .4-1.3.6-3 .5-1.6-.1-3 .1-3 .4 0 .4-1.5.7-3.4.8s-4.1.5-4.8.9c-.7.5-1.6.9-2 1-.5.1-1 .3-1.3.4s-.9.4-1.5.5c-.5.1-1.2.4-1.5.5-.7.3-2.2.7-3.6.9-.5 0-.7.6-.3 1.3.4.6.3.8-.3.5-.6-.4-3.6.9-6.8 2.8-5.4 3.3-8.8 4.4-8.3 2.7.4-.9-6.7-8.2-8-8.2-.5 0-1.3-.7-1.6-1.6-.3-.8-1-1.3-1.5-1s-1.2-.1-1.5-1c-.3-.8-1-1.2-1.6-.9-.5.3-1 .1-1-.4 0-.6-.7-1.1-1.5-1.1-1.4 0-2.2-.3-7-2.7-1.1-.5-3-.9-4.2-.8-1.3.1-2.3-.3-2.3-.8s-.8-.3-1.7.4c-1.2 1-1.5 1-.9.1.6-1-.8-1.1-6.6-.8-8.7.6-10.9 1-14.9 3-1.9 1-2.7 1.1-2.3.3.3-.7 0-.5-.8.4-.7.9-2.4 2-3.7 2.4-2.8.8-3.5 1.4-9.4 7.1-4.6 4.4-7.7 8.1-7.7 9 0 .3-.9 1.9-2.1 3.5-1.1 1.6-1.8 2.9-1.4 2.9.3 0-.2 1.4-1 3-.9 1.7-1.3 3.5-1 4 .3.6.1 1-.5 1-.7 0-.9.8-.5 1.9.3 1.1.2 2.2-.2 2.4-1.5.9-.4 16.9 1.4 21.7.4.8.7 1.8.8 2.2a13.14 13.14 0 0 1 .5 1.5c.1.5.2 1.1.1 1.5 0 .5.3.8.8.8.8 0 2.4 3.7 2.2 5.2-.1.5.6.8 1.4.8 2.1 0 1.9 1.7-.5 4.2-1.1 1.2-2 1.8-2 1.3s-.7.1-1.6 1.3c-.8 1.2-2 1.9-2.6 1.6-.6-.4-.8-.2-.4.4.3.6-.2 1.5-1.1 2.1-1 .6-1.5 1.1-1.1 1.1s-.5 1.3-2 2.8-3.6 4.6-4.7 6.7c-1.1 2.2-2.3 4.2-2.6 4.5-.5.4-2.1 5.6-2.1 7 0 .3-.4 1-.8 1.5-.5.6-1 2.8-1.2 4.9-.1 2-.6 4-1 4.2-.4.3-.4 1.3.2 2.3.6 1.2.5 2.2-.2 2.9-.9.9-.9 1.2 0 1.2 1 0 1 .5.2 2-.6 1.1-.7 2-.2 2 .4 0 .8.9.9 2 .1 1.3-.2 1.8-1 1.4-.8-.5-.8-.3.1.7.6.7 1.2 2.6 1.2 4.1s.5 2.8 1.2 2.8c.6 0 .9.3.5.6-.3.4 0 2.1.8 3.9.7 1.9 1.1 3.6.7 3.9-.3.3 0 .6.7.6s.9.4.6 1c-.3.5-.2 1 .3 1s1.5 1.4 2.2 3 1.6 3 2.1 3 .9.6.9 1.2c0 1.7 10.4 11.8 12.1 11.8.7 0 .9.3.6.7-.9.8 2.2 2.6 9.5 5.7 1.6.6 2.8 1.4 2.8 1.8 0 .3 1.1.5 2.5.3 1.4-.1 2.5.2 2.5.7s.5.6 1 .3 1-.1 1 .5 1.1.8 2.4.6 2.7-.2 3.1.2c.8.8 4.3 1.2 12.2 1.4 3.6.1 5.9.6 5.6 1.2-.4.5-.1.6.8 0 1.8-1.1 6.8-1.2 9.7-.2 1.3.4 2.1.4 1.8-.1-.3-.4.8-.8 2.5-.9 2 0 2.7.3 2.3 1.1-.5.8-.3.8.7-.1 1.6-1.5 3.3-1.6 2.3 0-.5.7-.3.8.7.2 2.3-1.4 5.1-1.6 4.3-.2-.5.7-.3.8.7.2 1.8-1.1 5.7-1.2 8.7-.2 1.3.4 2.1.4 1.8 0-.3-.5 1.7-.8 4.4-.8 3 0 4.6.4 4.3 1.1-.3.5 0 .4.8-.3 1.6-1.5 3.3-1.6 2.3 0-.5.7-.3.8.7.2 1.8-1.1 6.8-1.2 9.7-.2 1.3.4 2.1.4 1.8 0-.3-.5 1.7-.8 4.4-.8 3 0 4.6.4 4.3 1.1-.3.5 0 .4.8-.3 1.6-1.5 3.3-1.6 2.3 0-.5.7-.3.8.7.2 2.1-1.2 12.9-1.2 12.2.1-.3.5 0 .4.8-.3 1.6-1.5 3.3-1.6 2.3 0-.5.7-.3.8.7.2 2.1-1.2 12.9-1.2 12.2.1-.3.5 0 .4.8-.3 1.6-1.5 3.3-1.6 2.3 0-.5.7-.3.8.7.2 2.1-1.2 12.9-1.2 12.2.1-.3.5 0 .4.8-.2 1.6-1.6 3.3-1.7 2.3-.1-.5.7-.3.8.7.2 2.1-1.2 12.9-1.2 12.2.1-.3.5 0 .4.8-.2 1.6-1.6 3.3-1.7 2.3-.1-.5.7-.3.8.6.3.8-.5 5.7-1 10.9-1.2 13.6-.5 14.1-.6 14.1-1.6 0-.4.4-.6.9-.3 1.5 1 7.1-.6 6.4-1.7-.3-.6-.1-.7.6-.3 2.6 1.6 14.9-4.9 22.7-12.1 3.3-3 9.4-10.7 9.4-11.8 0-.3.7-1.3 1.5-2.2.8-.8 1.3-1.9 1-2.4-.4-.5-.1-.9.4-.9.6 0 1.1-.4 1.1-.9s.5-2.2 1.2-3.8c1-2.5 1.4-4 2.2-7.8.1-.6.5-1.6.9-2.3.5-.7.3-1.2-.5-1.2-1 0-1-.2 0-.9.8-.4 1.3-1.1 1.3-1.5-.3-1.9 0-2.7.8-2.1.5.3 1.2.1 1.6-.4.3-.6 1.3-.7 2.1-.4.9.3 1.9.1 2.3-.4.3-.6 2.6-2 5-3.3 5.5-2.7 15.1-12.3 17.4-17.3 1-2 2.1-3.7 2.5-3.7s.8-.8.9-1.8c.3-4.1.9-5.8 2.3-7 .8-.8.9-1.1.3-.7-1.4.7-1.8-1.1-.5-1.9 1-.6.9-9.7-.1-11.3-.4-.6-.3-1.5.3-1.8.6-.4.7-1.2.3-1.8-.5-.7-1-2.6-1.2-4.2-.2-1.7-.7-3.3-1.3-3.6-.5-.3-.9-.8-.7-1 .5-.8-2.5-7.9-3.4-7.9-.4 0-.6-.4-.3-.9s-.1-1.2-1-1.5c-.8-.3-1.3-1-.9-1.5.3-.5-.4-1.6-1.5-2.4-1.1-.7-1.7-1.7-1.3-2 .3-.4-.1-.7-1-.7-.8 0-1.9-.9-2.2-2-.4-1.1-1-1.8-1.4-1.6-.4.3-1.9-.5-3.2-1.7-3.3-2.9-6.5-4.7-8.4-4.7-.8 0-1.5-.5-1.5-1 0-.6-1.3-1-3-1-1.6 0-3-.4-3-.9s-1.3-.8-3-.7c-1.6.1-3-.3-3-.8 0-.6-.5-.4-1 .4-.8 1.2-1 1.2-1-.5 0-1.3-.3-1.6-.8-.8-1.4 2.2-3.2-.2-3.5-4.5-.1-2.3-.5-4.2-.9-4.2-.5 0-.8-.9-.8-2 0-2.7-4.1-10.7-7.4-14.5-1.4-1.7-2.6-3.6-2.6-4.4s-.3-1.1-.7-.8c-.3.4-1.6-.4-2.7-1.6-1.2-1.3-2.9-2.6-3.9-3-.9-.3-1.7-1.1-1.7-1.7s-.4-.8-1-.5c-.5.3-1 .1-1-.4 0-.6-.7-1.1-1.5-1.1s-1.5-.5-1.5-1c0-.6-.9-1-2-1s-2-.4-2-.8c0-.6-8.2-3.6-13.2-4.8-.5-.1-1.1-.3-1.5-.4-.5-.1-1.6-.1-2.7 0-1 .1-2.2-.3-2.6-.9-.3-.6-.9-.8-1.3-.5zm6.3 15.1c1.4.6 3.1.8 3.8.6.6-.3 1.2 0 1.2.6s.6 1.1 1.4 1.1c1.8 0 9.1 3.9 11.6 6.2 1 1 2.4 1.8 2.9 1.8s1.3.9 1.6 2 1 2 1.5 2 1.2.9 1.5 2c.4 1.2 1.1 1.7 1.8 1.4.7-.4.9-.4.5.1-.4.4-.2 1.7.4 2.9.7 1.1 1.1 2.4 1 2.8-.1.5.2.8.8.8.5 0 1 1.3 1 2.9 0 1.7.5 3.3 1 3.6.6.4.7 1.2.3 1.8-1.1 1.7-1 4.1.2 4.9.6.5.5.8-.2.8-.8 0-1.3 1.5-1.3 4 0 2.2-.5 4-1.1 4-.5 0-.7.5-.4 1.1.9 1.3 7.5.9 9.4-.5 1.1-.8 1.3-.8.7.1-.8 1.5.3 1.7 2.4.3.9-.5 1.9-.5 2.7.2.9.7 1.3.7 1.3-.2s.4-.9 1.7.1c1.5 1.2 1.6 1.2.8-.1-.6-1.2-.5-1.3.6-.3.7.7 2.6 1.3 4.1 1.3s2.8.4 2.8.8 1 .9 2.2.9c1.3.1 2.4.7 2.6 1.3.2.5.8.8 1.3.4.5-.3.9-.1.9.4s1.2 1.4 2.6 2c1.4.7 2.2 1.7 1.9 2.2-.3.6 0 1 .7 1 1.5 0 4.8 3.4 4.8 4.9 0 .5.4 1.1.9 1.3.4.1 1.7 2.9 2.8 6 3 8.2 2.8 17.8-.4 24.8-1.4 3-2.9 5.6-3.4 5.8s-.9 1.1-.9 1.9c0 .9-.2 1.4-.5 1.1s-2.1.9-3.9 2.6c-4.6 4.2-5.8 5-8.1 5.4-1.1.2-2.2.8-2.3 1.3-.7 1.9-2.2-.3-2.2-3.2 0-1.6-.4-2.9-.8-2.9-.5 0-.9-.6-.9-1.3 0-2-3.7-10.7-4.5-10.7-.5 0-.8-.7-.8-1.5s-.5-1.5-1.2-1.5c-.6 0-.9-.3-.5-.6.6-.7-1.1-2.9-7.4-9.5-2.6-2.7-4.9-4.5-5.3-4.2-.3.3-.6.1-.6-.5 0-.7-1.6-2-3.5-2.9s-3.5-2-3.5-2.5c0-.4-.9-.8-2-.8s-2-.4-2-1c0-.5-.7-.7-1.5-.4-.8.4-1.5.2-1.5-.4 0-.5-1.7-1.3-3.7-1.7l-5.3-1.2c-.8-.1-3.3-.5-5.4-.8s-4.3-.8-4.7-1.1c-.5-.3-.9 0-.9.7 0 3-1.8-1-2.4-5.1-.9-7.2-1.6-10.3-3.1-13.4-.8-1.6-1.2-3.2-.9-3.7s.1-.9-.4-.9-1.2-.8-1.5-1.8c-.9-2.8-3.9-7.3-7.7-11.5-1.9-2.2-3.4-4.4-3.2-4.9.1-.5-.2-.7-.8-.3-.5.3-1.3-.1-1.6-.9-.3-.9-1.2-1.6-1.9-1.6s-1.6-.7-1.9-1.6c-.4-.9-.9-1.4-1.2-1.1-.4.3-1.6-.3-2.8-1.5-1.1-1.1-4.1-2.9-6.5-4.1l-4.4-2.1 3.4-2.8c1.8-1.5 3.9-2.8 4.6-2.8s1.3-.5 1.3-1.1.9-.9 2-.6 1.8 0 1.7-.7c-.1-.6.4-1 1.2-.8.7.1 1.8-.1 2.5-.6.6-.5 1.9-.8 2.8-.7 1 .2 2 0 2.3-.4.6-1.1 16.5-.6 19.5.6zm-148.7 11.5c-.3.6 1.9 1.1 3 .7.8-.4 11.2 6.2 11 7.1-.2.5 0 .9.5.9 1.8-.3 3.2.2 3.2 1.1 0 .6.9 2 2 3.2 2.4 2.7 2.5 2.9.2 5.4-1 1.1-1.6 2.6-1.4 3.3.3.8 0 1.1-.5.8s-1.5.9-2.3 2.6c-.7 1.8-1.6 3.4-1.9 3.7-1.1.9-4.1 10.4-4.1 12.8 0 1.3-.4 2.1-.8 1.8-.5-.3-.8 1.2-.6 3.2.2 5.9.1 6-9.7 5.8-5.2-.1-9.1.3-9.3.9-.3.6-.9.4-1.5-.5-.8-1.1-1.1-1.1-1.1-.2 0 1-.5 1-2.1.1-1.5-.8-1.9-.8-1.5 0 .5.7-.5 1.1-2.6 1.2-3.8.1-6.6.6-11.5 2.3-2.4.8-6.3-1.8-6.3-4.2 0-.7-.6-1.5-1.4-1.8s-1.3-1.3-1.1-2.2c.1-.9-.1-2.2-.6-2.8s-1.1-2.8-1.5-5c-.3-2.1-.8-4.3-1.2-4.8-.3-.5 0-.6.6-.2.9.5.9 0 .2-1.8-.6-1.7-.6-2.7.1-3.2.8-.4.7-.9-.2-1.5-.8-.5-.9-.9-.4-.9.6 0 1.1-.8 1.2-1.8.1-.9.7-3.1 1.4-4.7.7-1.7 1.2-3.3 1.1-3.8-.1-.4.3-.7.8-.7s.9-.3.7-.8c-.1-.4.4-1.4 1.1-2.2s2.1-2.6 3.2-3.9 2-2.2 2-1.9c0 .4 1.4-.7 3.1-2.3s4-2.9 5-2.9 1.9-.5 1.9-1.1c0-.5.4-.8.9-.5.4.3 1.6 0 2.5-.7 1.8-1.3 18.7-1.7 17.9-.5zm83.2 5.2c2.8.2 5.1.5 5.3.6.2.2 1.4.4 5.3.9.5 0 .8.5.5.9-.2.4.5.9 1.7.9 4 .3 10.6 2.9 11.9 4.8.4.5.8.6.8.1s.9.1 2 1.4 2 1.9 2 1.5 1.1.4 2.5 1.9 2.5 2.4 2.5 2 1 .6 2.2 2.2c1.3 1.6 2.6 3 3 3.2.5.2.8 1 .8 1.8s.5 1.4 1 1.4c.6 0 1 .7 1 1.5s.5 1.5 1.1 1.5c.5 0 .7.4.4 1-.3.5-.2 1 .3 1 1.1 0 2.5 3.7 2.3 5.7-.1.7.3 1.3.9 1.3.5 0 .9.3.9.7-.1.5 0 1 .1 1.3.7 1.4.6 15.8-.1 17.6-.4 1.3-.3 2.6.4 3.4.9 1 .9 1.1 0 .6s-1.3-.1-1.3 1.1c0 1.4.7 1.9 3 1.8 1.7 0 3-.2 3-.5s4.1-.6 9-.7c5-.1 8.8.2 8.6.5-.2.4.7.7 2.2.6 1.4 0 3.7.5 5.1 1.2 2.7 1.4 8.4 3.6 8.8 3.5.2-.1 1.5.9 2.9 2.2 6.5 5.5 10.7 9.7 11.9 11.8l2.9 5.4c.9 1.6 1.6 3.8 1.6 4.8s.4 1.6.8 1.3c.5-.3.9 1.2 1.1 3.2.5 6.8.7 8.2 1.4 8.8.3.4.2 1.5-.3 2.5-.7 1.2-.7 2 0 2.4.6.4.7 1.2.3 1.8-.4.7-.8 1.6-.9 2.2-.9 5-1.4 6.7-2.8 9.3-.8 1.6-1.2 3.2-.9 3.6.4.3.1.6-.6.6s-.9.4-.6 1c.3.5.2 1-.3 1s-1.7 1.6-2.7 3.5c-1.1 1.9-2.1 3.3-2.3 3.1s-1.8 1-3.5 2.8c-4.6 4.6-15.6 10.2-18 9.3-.9-.3-1.7 0-2 .6-.3.7-2.4 1.2-5.1 1.2-2.5 0-4.6.2-4.6.6 0 .7-3.2.5-4.6-.3-.6-.4-2.2-.1-3.7.7s-2.7 1-2.7.5c0-.4-1.3-.6-3-.4-1.9.3-3 .1-3-.7 0-.7-.4-.8-1.2-.2-.7.5-4.2.9-7.8.8s-7.5.2-8.7.7c-1.2.4-2.5.3-2.8-.1-.6-1-2.4-.9-4.2.2-.7.5-1.3.4-1.3-.2 0-.5-1.3-.7-3-.5-1.9.3-3 .1-3-.7 0-.7-.4-.8-1.2-.2-.7.5-4.2.9-7.8.8s-7.5.2-8.7.7c-1.2.4-2.5.3-2.8-.1-.6-1-2.4-.9-4.2.2-.7.5-1.3.4-1.3-.2 0-.5-1.3-.7-3-.5-1.9.3-3 .1-3-.7 0-.7-.4-.8-1.2-.2-.7.5-3.2.9-5.5.9-2.4-.1-4.3.2-4.3.7 0 .4-.6.5-1.2.1-1.9-1.2-4.8-1.2-4.8 0 0 .7-.3.8-.8.1-.9-1.2-9.2-1.5-9.2-.3 0 .5-.6.6-1.2.2-1.9-1.2-4.8-1.2-4.8 0 0 .7-.3.8-.8.1-.9-1.4-12.2-1.4-12.2 0 0 .7-.3.7-.8 0-.9-1.2-5.5-1.4-6.3-.2-.3.5-1.3.2-2.1-.7-.9-.8-1.9-1.2-2.3-.8-.8.8-19.5 1-19 .2.2-.3-1.9-.4-4.6-.3-5.1.1-12.2-1.2-15.3-2.8-1.4-.8-1.6-.8-1 .3.4.7-.2.5-1.3-.5-1.1-.9-2.3-1.4-2.6-1-.4.3-.7.2-.7-.4s-1.3-1.6-3-2.3c-1.6-.7-3-1.6-3-2.1s-.5-.9-1.1-.9-2.7-1.6-4.6-3.5-3.1-3.5-2.7-3.5c.5 0-.2-.7-1.4-1.6-1.2-.8-2-2-1.7-2.5.4-.5.2-.9-.4-.9s-1.4-1.2-1.7-2.8c-.4-1.5-1.1-3-1.7-3.3-.5-.4-1-2.5-1.1-4.7 0-2.2-.5-3.8-.9-3.5-.5.3-.7-3.4-.6-8.1.2-4.7.6-8.6.9-8.6s.7-1.2.8-2.8c.1-1.5.6-2.8 1.2-3 .5-.2.7-.9.4-1.6-.3-.8.2-1.6 1-1.9.9-.4 1.3-1.3 1-2.2-.3-.8-.1-1.5.5-1.5s1.1-.7 1.1-1.5.4-1.5 1-1.5c.5 0 .9-.3.8-.8-.7-2.3 15.2-14.8 17.7-13.8 1 .3 1.2 0 .8-1.1s-.2-1.4.5-.9c.7.4 1.8.4 2.5-.1 1.3-.8 3.1-1.3 6.2-1.6 1.1-.1 2.3-.7 2.7-1.2.5-.6.8-.5.8.4s.4 1 1.3.4c1.9-1.5 25.7-1.5 27.6 0 1.2.9 1.3.9.7-.1-.9-1.5.8-1.6 3.4-.2 1.3.7 2.1.7 2.5 0 .5-.8 1.1-.7 2.1.1 1.1.9 1.4.8 1.4-.2 0-1.2.2-1.2.9-.1s.9 1.1 1.4-.2c.4-.9.1-1.6-.6-1.6-.8 0-.6-.4.3-1s1-1 .3-1c-.9 0-1.1-2.6-.9-9.8.4-11.4.7-13.3 2.4-15 .7-.8 1-1.8.7-2.3-.4-.5-.1-.9.4-.9.6 0 1.1-.4 1.1-1 0-3 10.8-16 13.3-16 .4 0 .5-.5.1-1.2-.4-.6-.3-.8.3-.5.6.4 1.8-.2 2.8-1.3s2.2-1.7 2.6-1.4c.5.3.9 0 .9-.6s.5-.8 1-.5c.6.3 1 .1 1-.4 0-.6.5-1.1 1.2-1.1.6 0 2-.8 3.1-1.8 1.5-1.2 1.8-1.3 1.2-.2-.8 1.3-.7 1.3.8.1 1-.8 2-1.1 2.4-.8.3.4 1.3.2 2-.5 1.5-1.2 2-1.3 9.6-2.1 2.6-.3 5-.7 5.3-1s1.3-.3 2.2-.1 4 .6 6.7.8z"/><path d="M203 193.1c0 .6-3.2 2-5.5 2.3-.5 0-1 .6-1 1.2 0 2.7-3.4 4.4-8.4 4.1-2.8-.1-5.1.1-5.1.5 0 .3-1 1-2.2 1.4-3.5 1-7.7 6.3-8.3 10.3-.4 2-.8 4.4-.9 5.3-.2.9 0 1.8.5 2 .6.2 0 1.4-1.3 2.8s-2.2 2.8-2.1 3.2c.2.4-.5.4-1.5.1-.9-.3-1.4-.3-1 .1.4.5-.1 2.2-1 3.9-2.4 4.3-1.7 14.7.9 14.7.5 0 .9.6.9 1.4s.7 1.7 1.6 2c.8.3 1.2 1.1.8 1.7-.4.7-.3.9.3.6.6-.4 1.6 0 2.2.7.7.8.8 1.7.3 2-.7.4-.9 5.1-.2 5.1.1 0 .4 1.3.6 2.9 1.1 6.3 8.4 11.7 15 11.1 2.3-.2 3.2.1 2.8.8-.5.9-.3.9.6 0 1.4-1.3 4.3-.6 3.4.8-.3.5 0 .9.6.9s.8.4.5 1c-.3.5-.1 1 .5 1 .7 0 2.5.9 4.1 2.1 1.6 1.1 3.3 1.8 3.8 1.4.5-.3 1.2-.1 1.5.4s2.1.6 4 .1c1.9-.4 3.7-.5 4-.2.4.3.6 0 .6-.6 0-.7.7-1.2 1.5-1.2s1.5-.5 1.5-1c0-.6.6-1 1.3-1 .8 0 1.8-1 2.3-2.1.8-1.7 2-2.2 5.7-2.4 2.5-.1 4.4.1 4.2.5-.3.4 1.3-.2 3.5-1.2 2.2-1.1 4-2.4 4-3 0-.5.4-.7.9-.4.8.5 3.6-4.2 3.3-5.7-.1-.4.1-.7.6-.7.4 0 .8-2.6.8-5.7s.5-5.8 1.1-6 1.9-1.1 2.9-1.9c1-.9 1.2-1.3.4-.9-1 .4-.9.2.3-.8.9-.8 1.7-1.9 1.7-2.6 0-.6.4-1.1.8-1.1.7 0 1.5-3.9 1.3-6.5-.3-3.9-.8-5.7-2.3-7.4-.9-1.1-1.4-2.1-1.2-2.4.2-.2-.9-1.4-2.6-2.7-2.4-1.8-2.7-2.6-1.9-4.1.6-1.1.6-1.9 0-1.9-.5 0-.7-1.6-.5-3.5.1-1.9-.2-3.5-.7-3.5-.6 0-.7-.5-.4-1 .3-.6.1-1-.4-1-.6 0-1.1-.6-1.1-1.4s-.9-1.8-2-2.1c-1.1-.4-1.8-1.1-1.5-1.6.4-.5-.1-.9-.9-.9-.9 0-1.6-.4-1.6-.8 0-.9-.7-1.1-7.7-1.2-4.8-.2-8.3-2.3-8.3-5.1 0-.7-.3-.9-.6-.6-.4.3-1.6.1-2.8-.5-1.1-.7-2.4-1.3-2.8-1.4-.5-.1-.9-.3-1-.4-.6-.6-8.8-.5-8.8.1zm11.3 5.8c1.5.8 2.7 2.3 2.7 3.2 0 2.1-2.6 4.3-4 3.4-.6-.4-1-.3-.9.2.4 1.5-1.3 4.3-2.2 3.7-.5-.3-.9 0-.9.5 0 1.9-2.8 1.2-3.5-.9-.3-1.1-1.2-2-2-2-.7 0-1.5-.7-1.9-1.5-.3-.8-1.2-1.5-2-1.5-2.3 0-.7-3.9 2.3-5.5 3.3-1.8 8.8-1.6 12.4.4zm-25.3 6.6c1 0 1.5 1.1 1.5 3.7 0 2.1-.2 3.8-.5 3.8s-.6.9-.7 2 .3 2 .8 2 .4.6-.3 1.4c-.9.9-1.9 1.1-2.9.5-.9-.5-3.1-.4-4.9.1-2.1.6-3.9.6-4.9 0-.9-.5-1.2-1-.7-1s.3-.7-.4-1.5c-.7-.9-.8-1.5-.2-1.5.5 0 1.3-1.2 1.6-2.6.8-3 3-5.6 4-4.7.3.4.6.1.6-.5 0-.7.9-1.2 2-1.2s2-.6 2-1.3.3-.8.8-.2c.4.5 1.4 1 2.2 1zm48.6 4.3c-.3.2-.1 1.3.5 2.4 1.6 2.9 2.1 6.8.9 6.9-3.9.4-6.5.1-6.3-.8.1-.5-.4-1-1.2-1s-1.2.4-.9.8c.2.4 0 1-.6 1.4-.5.3-1 .1-1-.5 0-.7-.6-.8-1.9-.1-1.6.9-1.8.7-1.6-1.4.2-1.3.6-2.9 1-3.4.3-.6.2-1.1-.2-1.1-.5 0-.9-1.8-1-4s.2-3.8.7-3.5 1.1.1 1.5-.4c.3-.6 2.7.1 5.5 1.6 2.8 1.4 4.8 2.8 4.6 3.1zm-35 1.4c.4-.4.4-.2.1.4-.4.7 0 1.7.8 2.4s1.5 1.8 1.5 2.5c0 .9.8 1.1 2.3.8 2.8-.7 5.8-3.3 5.1-4.4-.3-.5.2-.9 1.1-.9s1.3-.5 1-1c-.3-.6 0-1 .8-1s1.8-.7 2.1-1.6c.6-1.5.8-1.5 2.5.1 1.1.9 1.8 2.6 1.6 3.7-1.1 5.4-.8 9.7.7 11.1.9.9 1.8 1.3 2.1 1 .4-.3 3.1-.7 6.2-.9 6.8-.4 7.9 1.1 4.1 5.7-1.4 1.7-2.6 2.7-2.6 2.3s-1.2.5-2.7 2c-2.4 2.4-2.5 2.9-1.3 5.1.7 1.4 1.5 2.3 1.8 2 .7-.6 6 4.9 5.5 5.7-.2.5 0 .8.5.8 1.3 0 1.1 3-.2 3.1-.6.1-2.7 0-4.6 0-8.3-.3-9.3-.2-10.1 1-.4.7-.5 1.7-.3 2.3.8 2.3 1 9.7.2 10.2-.5.3-.6 1-.3 1.5.4.5-.1.9-1 .9-1.6 0-6.2-4-8.1-7-.5-.8-1.9-2.1-3.2-2.8-2-1.1-2.3-1-3.2 1.3-.5 1.4-1.5 2.5-2.1 2.5-.7 0-1 .3-.6.6.7.7-1.8 3.5-2.9 3.4-.4-.1-1 .3-1.4.9-.7 1.3-4 .4-4-1.1 0-.5.5-.6 1.1-.2.8.4.8 0 0-1.4-1-1.9-.8-7.3.4-9.2.8-1.3-3-3.8-5-3.3-2.3.5-4.8.6-8.7.4-1.9-.1-2.8-.6-2.8-1.8 0-2 7.8-9.6 9-8.8.5.3.5-.9-.1-2.7-.5-1.8-.9-3.4-.9-3.5 0-.2-.5-.3-1.1-.3-2.5 0-8.8-8.5-6.6-9.1 3.8-.9 9.2-.8 9.8.3.7 1 .9 1 .9-.2 0-1.3.1-1.3 1 0s1.2 1.3 2.1-.3c.6-.9 1.4-1.5 1.9-1.2.4.3.5-1 .1-2.8-1.1-4.7-.6-10.8 1-11.7.8-.6 2-.1 3.5 1.5 1.2 1.3 2.5 2.1 3 1.7zM175 228.1c0 .6 1.8 3 4.1 5.2 3 3.1 3.7 4.3 2.6 4.7-1.8.6-6.8 6.6-6.1 7.2.3.3-.2.8-1.1 1.1-.8.4-1.5.2-1.5-.3 0-.6-.7-1-1.6-1-.8 0-1.3-.4-1-.9s-.1-1.2-1-1.5c-.8-.3-1.2-1.1-.9-1.6.4-.6.1-1.8-.7-2.7-1.1-1.4-1.1-1.6.2-.8s1.3.7.1-.8c-.9-1.1-1-1.7-.2-1.7.6 0 1-.3 1-.8-.3-1.7.2-3 2.1-5 2.3-2.4 4-2.9 4-1.1zm68.5-.1c-.3.5.2 1 1.1 1 1 0 1.5.3 1.1.6-.3.4 0 1.2.7 2 .7.7 1.2 2.4 1.1 3.8-.2 1.4.1 2.6.7 2.6.5 0 .2.7-.6 1.6-.9.8-1.6 2-1.6 2.5 0 1.2-3.2 4.9-4.4 4.9-.5 0-.7-.3-.3-.6.3-.3-1.4-2.6-3.9-5-2.4-2.4-4-4.4-3.4-4.4.5 0 .9-.6.8-1.3-.2-.6.3-1.1 1-1 .6.2 1.2-.2 1.2-.8s.6-1.7 1.3-2.4c.6-.8 1.8-2.1 2.5-3 1.4-1.7 3.7-2.1 2.7-.5zm-62 28c.2 0 .7-.5 1.1-1.2.5-.7.3-.8-.6-.3-.9.6-1.1.4-.5-.5.6-1 1.1-1 2 .3.7.9 1.4 1.5 1.6 1.2.3-.2 1.7-.6 3.2-.9 2.3-.4 2.6-.2 1.7 1.3-.6 1.2-.5 2.2.3 3.1.9 1 .9 1.1-.2.5-1-.5-1.2-.3-.8 1.1 1.8 5.8 1.8 7.1.3 7.7-.9.4-1.6.1-1.6-.6 0-.8-.4-.7-1 .3-.6.9-1.3 1.1-1.7.5-.5-.6-1.5-1.1-2.3-1.3s-1.7-.8-1.8-1.3c-.2-.5-.8-.7-1.3-.3-.5.3-.9-.1-.9-1 0-.8-.4-1.6-1-1.8-.5-.2-1.1-2.2-1.4-4.5-.4-4.5.9-5.9 3.2-3.6.7.7 1.5 1.3 1.7 1.3zm48.3-.8c.7.7 1.2.8 1.2.2 0-.5 2-.9 4.5-1 4.1 0 4.4.2 4.3 2.3-.1 1.3-.6 2.3-1.1 2.3-.4 0-.5.5-.2 1 .8 1.3-3.4 7.2-4.6 6.5-.5-.4-.9-.2-.9.3 0 .6-.7 1.3-1.6 1.6-1 .4-1.3.2-.8-.7.6-.9.4-.9-.7-.1-.8.6-2.1 1.1-3 1.1-1.2 0-1.5-1.3-1.5-6.9.1-5.2.4-6.7 1.4-6.3.7.3 1 0 .7-.5-.9-1.4.9-1.2 2.3.2zm-18.5 10.3c1.9 1.9 3.9 3.5 4.6 3.5 1.5 0 1.4 2.8-.2 4.4-.7.7-2.2 1.8-3.5 2.5-1.7.9-2.2.9-2.2-.1 0-.9-.3-.9-1 .2-.8 1.3-1.3 1.3-3.1.2-1.7-1.1-2-1.1-1.3 0 .4.7-.2.5-1.3-.5-1.1-.9-2.4-1.7-3-1.7-2 0-2.5-3.4-.7-4.5.9-.6 3.1-2.4 4.8-4.1 1.7-1.8 3.2-3.2 3.3-3.3.1 0 1.7 1.5 3.6 3.4zm-2.3-41.6c0 .5-.8.8-1.7.8-4.3 0-5.5.5-8.3 3.4l-3.1 3.8c-.6 3.2-.4 9.1.3 9.1.5 0 .6.4.3 1-.3.5-.1 1 .6 1s1 .3.6.6c-.8.8 1.8 3.4 3.3 3.4.6 0 .9.4.6.8-.2.4 1 .9 2.7 1 1.7.2 3.4.7 3.8 1.3.4.7.9.5 1.2-.5.4-.9 1.2-1.3 2-1.1 1.6.7 6.3-3.2 8.1-6.7 1.7-3.3 1.2-9.1-1-12.1-2-2.7-9.4-7.2-9.4-5.8zm71.8-2c-2.8 2.7-2.7 6.7.1 9.8 1.1 1.2 1.7 2.4 1.4 2.7-.4.3-.1.6.4.6 1.5 0 6.5 9 6.5 11.7 0 1.3.3 2.1.7 1.9.8-.5.5 5.9-.4 7.3-.3.6-.2 1.1.3 1.1.9 0-.5 5.2-2.1 7.7-.5.7-.5 1.8-.1 2.5s.3.8-.4.4c-.8-.5-1.2 0-1.2 1.3 0 1.2-.6 2.1-1.2 2.1-.9 0-.8.4.2 1 1.3.9 1.3 1 0 1-1 0-1.1.3-.4.8.6.4 1 1.5.8 2.5-.1.9.1 1.5.6 1.2s1 0 1.2.7c.2.6 2 1.2 3.9 1.2 3.4.1 6.1-1.2 5.2-2.7-.2-.4.1-.7.7-.7s.8-.5.5-1c-.3-.6-.1-1 .5-1s.8-.5.5-1c-.3-.6-.1-1 .6-1s.9-.3.6-.7c-.4-.3-.3-1.1.2-1.7.6-.6 1.1-2.3 1.3-3.6.2-1.4.7-3 1-3.6.9-1.4.7-17.4-.2-17.4-.4 0-.6-1.3-.5-3 .1-1.6-.2-2.7-.6-2.4-.4.2-1-.9-1.4-2.6-.4-1.6-1.1-3-1.6-3-.6 0-.8-.4-.5-.9.3-.4-.6-2.1-1.9-3.7-1.4-1.6-2.5-3.5-2.5-4.3s-.3-1.1-.6-.8c-.4.4-1.5-.2-2.4-1.3-2.2-2.6-7-3.1-9.2-1.1zM38 144c-.9 1.4-1.6 3.4-1.4 4.5.4 3 5.4 6.5 9.2 6.5 1.7 0 3.2.4 3.2.8s1.2.9 2.6 1 3.1.5 3.7.9c.7.4 1.8.8 2.7.9.8.1 3.4.6 5.8 1.2 3.3.8 4.6.7 5.6-.4.8-.7 1.7-1 2.1-.6.5.4.5.1.1-.5-.4-.7-.3-2 .2-3 2-3.5-2.1-8-7.8-8.5-1.4-.2-2.8-.7-3.2-1.3-.4-.5-1.7-1-3-1s-2.8-.3-3.4-.7-2.5-.9-4.3-1c-1.7-.1-3.1-.6-3.1-1s-1.6-.6-3.6-.5c-2.6.1-4.1.9-5.4 2.7zm19.7 43.6c-.1.1-2 .5-4.2.8-14.4 2.3-15.8 2.6-17.7 4.4-2.1 1.8-2.3 4.1-.7 7.6.7 1.4 1.7 2.2 2.5 1.9s1.4 0 1.4.5c0 .6 1.1.9 2.5.6 1.4-.2 3.6-.6 5-.8 1.3-.3 2.9-.7 3.5-1.1.5-.3 1 0 1 .7 0 .8.3.9.8.3.4-.6 1.8-1.1 3.2-1.3 4.6-.5 5.5-.7 6.9-1.6 1.1-.7 1.2-.6.6.5-.7 1.1-.6 1.2.7.2.8-.7 1.8-1 2.1-.6.4.3.7.1.7-.5 0-.7.5-1.1 1.2-1 1.7.4 3.7-7.4 2-8-.7-.2-.9-.9-.6-1.4.4-.6.2-.8-.4-.4-.6.3-1.4.2-1.7-.4-.5-.9-7.9-1.2-8.8-.4z"/></svg>