<svg height="512" viewBox="0 0 61 61" width="512" xmlns="http://www.w3.org/2000/svg"><g id="Page-1" fill="none" fill-rule="evenodd"><g id="048---Global-Weather-Search" fill="rgb(0,0,0)" fill-rule="nonzero"><path id="Shape" d="m49 25c.018588-11.1911349-7.6876049-20.91488344-18.5870602-23.45333178-10.8994553-2.53844835-22.1089062 2.77990712-27.03679248 12.82768218-4.92788628 10.047775-2.27061886 22.1670004 6.40923348 29.2311358 8.6798523 7.0641355 21.0861812 7.2044832 29.9236192.3385138l2.359 2.356c-.1894755.8263969.0131218 1.693986.549 2.351l9.2 11.328c.4929273.6063379 1.2196265.9755011 2 1.016h.141c.7321537-.0003902 1.4342193-.2913589 1.952-.809l4.277-4.277c.5530422-.5520695.8459341-1.3128296.8058938-2.0932353-.0400404-.7804058-.4092542-1.5071951-1.0158938-1.9997647l-11.328-9.2c-.6573903-.5359086-1.5252879-.7384918-2.352-.549l-2.357-2.359c3.2812136-4.2003678 5.0624591-9.3779488 5.06-14.708zm-46 0c0-12.1502645 9.8497355-22 22-22s22 9.8497355 22 22-9.8497355 22-22 22c-12.1445532-.0137772-21.98622284-9.8554468-22-22zm56 28.924c.0127679.215068-.0681944.4251322-.222.576l-4.278 4.277c-.1501143.1549482-.3607238.2361206-.576.222-.214959-.0094485-.4154044-.111129-.55-.279l-6.769-8.331 3.784-3.784 8.331 6.769c.1682457.1344052.2703046.3348783.28.55zm-10.17-8.587-3.492 3.492-1.168-1.437c-.2464653-.3018293-.2235322-.7414531.053-1.016l2.153-2.153c.2743419-.2769902.7143269-.2999422 1.016-.053zm-4.241-2.155-1.406 1.406-1.939-1.939c.488-.4486667.9566667-.9173333 1.406-1.406z"/><path id="Shape" d="m25 5c-11.045695 0-20 8.954305-20 20s8.954305 20 20 20 20-8.954305 20-20c-.0126747-11.0404407-8.9595593-19.98732534-20-20zm0 2c6.4160474-.00991137 12.350751 3.4013744 15.5714404 8.9505114 3.2206894 5.5491371 3.2388156 12.3943726.0475596 17.9604886-.5300507-.6567904-1.1043902-1.2765692-1.719-1.855-.0272873-.0256011-.0559997-.0496394-.086-.072-4.0653586-3.7267806-9.55195-5.4987318-15.0291882-4.8538312-5.4772381.6449006-10.4022262 3.6427314-13.4908118 8.2118312-3.87612084-5.4890191-4.36675059-12.6817349-1.27189915-18.6462582 3.09485145-5.9645233 9.25825895-9.70461494 15.97789915-9.6957418zm-13.385 29.992c1.9810959-3.191127 4.9734185-5.6272296 8.5-6.92.302027.5416375.5109331 1.1301578.618 1.741.2546212 1.3208418 1.2080089 2.3983845 2.488 2.812l.267.092c.6593338.1980531 1.1866896.6953908 1.423 1.342.3076242.9825011-.1960784 2.0357372-1.154 2.413l-3.4 1.361c-.9088822.3673856-1.6944688.9857967-2.265 1.783-2.4760462-1.0404093-4.6887916-2.6201121-6.477-4.624zm8.513 5.32c.2837178-.2658868.6138626-.4773964.974-.624l3.4-1.358c1.9271394-.7567241 2.94298-2.8730586 2.328-4.85-.4172519-1.2664807-1.4183146-2.2548906-2.69-2.656l-.281-.1c-.5883916-.1783159-1.0327265-.6632889-1.159-1.265-.1263374-.6909871-.3463668-1.3615049-.654-1.993 5.0026361-1.197786 10.278532-.059249 14.342 3.095-2.8306738 1.5749328-4.5176485 4.6241357-4.348 7.859.0023621.370723.026068.7410024.071 1.109-3.7828501 1.6419805-8.0186453 1.9187583-11.983.783zm13.918-1.776c0-.038-.006-.078-.006-.116-.1564151-2.7602913 1.4241647-5.3255404 3.96-6.427.5238962.526683 1.0126158 1.087224 1.463 1.678-1.4573054 1.9720197-3.3002908 3.6272023-5.417 4.865z"/><path id="Shape" d="m22 18h.539c.7169343 1.2446574 2.0469944 2.0084856 3.4833446 2.0004186 1.4363502-.0080671 2.7577467-.7867869 3.4606554-2.0394186 1.57803-.2439304 2.6884591-1.6811894 2.5261712-3.2696929-.162288-1.5885035-1.5404153-2.7715214-3.1351712-2.6913071-.4608584-1.7937897-2.0928397-3.03663388-3.944598-3.00402999s-3.4389762 1.33212849-3.836402 3.14102999c-1.4161182.4432667-2.29542 1.8552322-2.068565 3.3216608s1.4917027 2.5466964 2.975565 2.5413392zm0-4c.5522847 0 1-.4477153 1-1 .0119684-.7145312.4042255-1.3684002 1.0290119-1.7153008.6247863-.3469007 1.387182-.3341305 2 .0335.6128179.3676305.9829565 1.0342696.9709881 1.7488008-.0855954.3904586.0695574.7943801.3945373 1.0271301s.7573464.2496087 1.0994627.0428699c.1528759-.0912893.3279497-.1386906.506-.137.5522847 0 1 .4477153 1 1s-.4477153 1-1 1h-.18c-.4273918.0000244-.8075251.271663-.946.676-.2810797.7938536-1.0318543 1.3244731-1.874 1.3244731s-1.5929203-.5306195-1.874-1.3244731c-.1384749-.404337-.5186082-.6759756-.946-.676h-1.18c-.5522847 0-1-.4477153-1-1s.4477153-1 1-1z"/><path id="Shape" d="m20 23c.5522847 0 1-.4477153 1-1v-1c0-.5522847-.4477153-1-1-1s-1 .4477153-1 1v1c0 .5522847.4477153 1 1 1z"/><path id="Shape" d="m30 21c-.5522847 0-1 .4477153-1 1v1c0 .5522847.4477153 1 1 1s1-.4477153 1-1v-1c0-.5522847-.4477153-1-1-1z"/><path id="Shape" d="m25 22c-.5522847 0-1 .4477153-1 1v1c0 .5522847.4477153 1 1 1s1-.4477153 1-1v-1c0-.5522847-.4477153-1-1-1z"/></g></g></svg>