<svg xmlns="http://www.w3.org/2000/svg" height="682.667" viewBox="0 0 512 512" width="682.667"><path d="M509.53 291.945c-79.937 79.934-209.54 79.934-289.473 0s-79.937-209.54 0-289.477L222.6 0C168.727 7.27 116.723 31.586 75.324 72.984c-100.43 100.43-100.43 263.262 0 363.69s263.262 100.43 363.69 0C480.414 395.277 504.73 343.273 512 289.4l-2.47 2.535zm0 0" fill="#ffd073"/><path d="M368.016 486.965c-95.586 45.64-213.523 28.875-292.69-50.29-100.434-100.434-100.434-263.258 0-363.69C113.898 34.4 161.69 10.656 211.602 1.734c-25.664 12.238-49.723 29.004-70.977 50.258-100.434 100.434-100.434 263.258 0 363.69 61.848 61.844 147.363 85.61 227.39 71.28zm0 0" fill="#f28f44"/><path d="M355.844 117.805l28.492-5.566c12.484-2.44 12.484-20.3 0-22.738l-28.492-5.57a40.6 40.6 0 0 1-32.066-32.066l-5.57-28.492c-2.437-12.484-20.3-12.484-22.738 0l-5.57 28.492c-3.168 16.22-15.848 28.898-32.062 32.066L229.34 89.5c-12.484 2.438-12.484 20.297 0 22.738l28.496 5.566c16.215 3.168 28.895 15.848 32.063 32.066l5.57 28.496c2.438 12.484 20.3 12.484 22.738 0l5.57-28.496a40.61 40.61 0 0 1 32.066-32.066zm69.03 133.918l18.406-3.598c8.066-1.574 8.066-13.113 0-14.687l-18.406-3.598a26.23 26.23 0 0 1-20.715-20.715l-3.598-18.406c-1.574-8.066-13.113-8.066-14.687 0l-3.598 18.406a26.23 26.23 0 0 1-20.715 20.715l-18.406 3.598c-8.066 1.574-8.066 13.113 0 14.688l18.406 3.598a26.23 26.23 0 0 1 20.715 20.715l3.598 18.406c1.574 8.066 13.113 8.066 14.688 0l3.598-18.406c2.047-10.477 10.238-18.664 20.715-20.715zm0 0" fill="#ffee8c"/><path d="M80.242 257.47c-3.293 0-6.363-2.078-7.465-5.375l-2.98-8.906a7.88 7.88 0 0 1 4.965-9.965c4.125-1.38 8.586.844 9.965 4.97l2.98 8.906a7.88 7.88 0 0 1-4.965 9.965 7.86 7.86 0 0 1-2.5.406zm43.39-14.52c-3.293 0-6.363-2.082-7.465-5.38l-2.98-8.906a7.88 7.88 0 0 1 4.965-9.965 7.88 7.88 0 0 1 9.965 4.969l2.98 8.906a7.88 7.88 0 0 1-4.965 9.965 7.86 7.86 0 0 1-2.5.4zm-18.48 57.144c-9.336 0-18.613-2.168-27.215-6.453-3.9-1.937-5.473-6.664-3.535-10.56s6.668-5.473 10.56-3.53c22.402 11.164 49.707 2.023 60.875-20.375a7.872 7.872 0 0 1 14.09 7.023c-7.285 14.613-19.824 25.516-35.3 30.7-6.375 2.133-12.934 3.195-19.465 3.195zm0 0" fill="#cc9236"/></svg>