<?xml version="1.0" standalone="no"?>
<!DOCTYPE svg PUBLIC "-//W3C//DTD SVG 20010904//EN"
 "http://www.w3.org/TR/2001/REC-SVG-20010904/DTD/svg10.dtd">
<svg version="1.0" xmlns="http://www.w3.org/2000/svg"
 width="400.000000pt" height="400.000000pt" viewBox="0 0 400.000000 400.000000"
 preserveAspectRatio="xMidYMid meet">
<metadata>
Created by potrace 1.11, written by Peter Selinger 2001-2013
</metadata>
<g transform="translate(0.000000,400.000000) scale(0.100000,-0.100000)"
fill="#000000" stroke="none">
<path d="M1339 3147 c-14 -12 -32 -42 -39 -67 -8 -25 -17 -49 -20 -55 -4 -5
-6 -20 -5 -32 1 -12 -2 -20 -5 -18 -9 6 -22 -46 -25 -97 -2 -29 2 -41 19 -51
42 -27 64 -27 83 2 9 14 16 29 15 34 -1 4 3 7 10 7 6 0 8 3 5 6 -3 4 -2 15 4
26 6 11 13 32 15 46 3 15 10 32 16 39 6 7 8 13 5 13 -3 0 3 23 13 50 11 30 14
47 7 43 -7 -4 -6 1 2 10 9 11 10 17 2 17 -6 0 -11 6 -11 13 0 12 -39 37 -58
37 -4 0 -19 -10 -33 -23z"/>
<path d="M720 3028 c0 -5 -4 -6 -10 -3 -5 3 -10 -1 -10 -9 0 -9 -4 -16 -10
-16 -5 0 -10 -5 -10 -11 0 -5 6 -7 13 -3 9 5 9 4 1 -5 -13 -14 -7 -51 7 -51 5
0 9 -4 9 -10 0 -10 21 -38 58 -76 13 -13 20 -24 17 -24 -3 0 3 -9 13 -19 9
-10 29 -33 44 -50 15 -17 34 -31 42 -31 23 0 66 22 67 34 6 48 5 59 -7 71 -8
7 -14 16 -14 19 0 7 -26 39 -58 72 -13 13 -20 24 -16 24 5 0 -1 7 -12 16 -10
8 -13 12 -5 8 9 -5 12 -3 7 4 -4 7 -14 12 -22 12 -8 0 -14 5 -14 11 0 19 -28
39 -59 43 -17 2 -31 -1 -31 -6z"/>
<path d="M2757 2864 c-4 -4 -37 -8 -74 -9 -80 -3 -128 -11 -157 -27 -11 -6
-23 -11 -26 -11 -10 2 -96 -40 -119 -58 -13 -10 -27 -16 -32 -13 -5 3 -8 1 -7
-4 3 -10 -40 -54 -69 -70 -9 -6 -26 -7 -37 -3 -12 4 -31 6 -43 5 -13 0 -23 2
-23 7 0 4 -9 7 -20 6 -11 -1 -20 -5 -20 -10 0 -5 -8 -3 -17 4 -15 12 -16 12
-8 -1 8 -13 7 -13 -8 -1 -14 11 -17 11 -17 0 0 -9 -3 -10 -8 -4 -8 12 -42 16
-42 5 0 -4 -13 -6 -30 -5 -16 1 -30 -1 -30 -4 0 -4 -15 -7 -34 -8 -19 -1 -41
-5 -48 -9 -7 -5 -16 -9 -20 -10 -5 -1 -10 -3 -13 -4 -3 -1 -9 -4 -15 -5 -5 -1
-12 -4 -15 -5 -7 -3 -22 -7 -36 -9 -5 0 -7 -6 -3 -13 4 -6 3 -8 -3 -5 -6 4
-36 -9 -68 -28 -54 -33 -88 -44 -83 -27 4 9 -67 82 -80 82 -5 0 -13 7 -16 16
-3 8 -10 13 -15 10 -5 -3 -12 1 -15 10 -3 8 -10 12 -16 9 -5 -3 -10 -1 -10 4
0 6 -7 11 -15 11 -14 0 -22 3 -70 27 -11 5 -30 9 -42 8 -13 -1 -23 3 -23 8 0
5 -8 3 -17 -4 -12 -10 -15 -10 -9 -1 6 10 -8 11 -66 8 -87 -6 -109 -10 -149
-30 -19 -10 -27 -11 -23 -3 3 7 0 5 -8 -4 -7 -9 -24 -20 -37 -24 -28 -8 -35
-14 -94 -71 -46 -44 -77 -81 -77 -90 0 -3 -9 -19 -21 -35 -11 -16 -18 -29 -14
-29 3 0 -2 -14 -10 -30 -9 -17 -13 -35 -10 -40 3 -6 1 -10 -5 -10 -7 0 -9 -8
-5 -19 3 -11 2 -22 -2 -24 -15 -9 -4 -169 14 -217 4 -8 7 -18 8 -22 2 -5 4
-11 5 -15 1 -5 2 -11 1 -15 0 -5 3 -8 8 -8 8 0 24 -37 22 -52 -1 -5 6 -8 14
-8 21 0 19 -17 -5 -42 -11 -12 -20 -18 -20 -13 0 5 -7 -1 -16 -13 -8 -12 -20
-19 -26 -16 -6 4 -8 2 -4 -4 3 -6 -2 -15 -11 -21 -10 -6 -15 -11 -11 -11 4 0
-5 -13 -20 -28 -15 -15 -36 -46 -47 -67 -11 -22 -23 -42 -26 -45 -5 -4 -21
-56 -21 -70 0 -3 -4 -10 -8 -15 -5 -6 -10 -28 -12 -49 -1 -20 -6 -40 -10 -42
-4 -3 -4 -13 2 -23 6 -12 5 -22 -2 -29 -9 -9 -9 -12 0 -12 10 0 10 -5 2 -20
-6 -11 -7 -20 -2 -20 4 0 8 -9 9 -20 1 -13 -2 -18 -10 -14 -8 5 -8 3 1 -7 6
-7 12 -26 12 -41 0 -15 5 -28 12 -28 6 0 9 -3 5 -6 -3 -4 0 -21 8 -39 7 -19
11 -36 7 -39 -3 -3 0 -6 7 -6 7 0 9 -4 6 -10 -3 -5 -2 -10 3 -10 5 0 15 -14
22 -30 7 -16 16 -30 21 -30 5 0 9 -6 9 -12 0 -17 104 -118 121 -118 7 0 9 -3
6 -7 -9 -8 22 -26 95 -57 16 -6 28 -14 28 -18 0 -3 11 -5 25 -3 14 1 25 -2 25
-7 0 -5 5 -6 10 -3 5 3 10 1 10 -5 0 -6 11 -8 24 -6 13 2 27 2 31 -2 8 -8 43
-12 122 -14 36 -1 59 -6 56 -12 -4 -5 -1 -6 8 0 18 11 68 12 97 2 13 -4 21 -4
18 1 -3 4 8 8 25 9 20 0 27 -3 23 -11 -5 -8 -3 -8 7 1 16 15 33 16 23 0 -5 -7
-3 -8 7 -2 23 14 51 16 43 2 -5 -7 -3 -8 7 -2 18 11 57 12 87 2 13 -4 21 -4
18 0 -3 5 17 8 44 8 30 0 46 -4 43 -11 -3 -5 0 -4 8 3 16 15 33 16 23 0 -5 -7
-3 -8 7 -2 18 11 68 12 97 2 13 -4 21 -4 18 0 -3 5 17 8 44 8 30 0 46 -4 43
-11 -3 -5 0 -4 8 3 16 15 33 16 23 0 -5 -7 -3 -8 7 -2 21 12 129 12 122 -1 -3
-5 0 -4 8 3 16 15 33 16 23 0 -5 -7 -3 -8 7 -2 21 12 129 12 122 -1 -3 -5 0
-4 8 3 16 15 33 16 23 0 -5 -7 -3 -8 7 -2 21 12 129 12 122 -1 -3 -5 0 -4 8 2
16 16 33 17 23 1 -5 -7 -3 -8 7 -2 21 12 129 12 122 -1 -3 -5 0 -4 8 2 16 16
33 17 23 1 -5 -7 -3 -8 6 -3 8 5 57 10 109 12 136 5 141 6 141 16 0 4 4 6 9 3
15 -10 71 6 64 17 -3 6 -1 7 6 3 26 -16 149 49 227 121 33 30 94 107 94 118 0
3 7 13 15 22 8 8 13 19 10 24 -4 5 -1 9 4 9 6 0 11 4 11 9 0 5 5 22 12 38 10
25 14 40 22 78 1 6 5 16 9 23 5 7 3 12 -5 12 -10 0 -10 2 0 9 8 4 13 11 13 15
-3 19 0 27 8 21 5 -3 12 -1 16 4 3 6 13 7 21 4 9 -3 19 -1 23 4 3 6 26 20 50
33 55 27 151 123 174 173 10 20 21 37 25 37 4 0 8 8 9 18 3 41 9 58 23 70 8 8
9 11 3 7 -14 -7 -18 11 -5 19 10 6 9 97 -1 113 -4 6 -3 15 3 18 6 4 7 12 3 18
-5 7 -10 26 -12 42 -2 17 -7 33 -13 36 -5 3 -9 8 -7 10 5 8 -25 79 -34 79 -4
0 -6 4 -3 9 3 5 -1 12 -10 15 -8 3 -13 10 -9 15 3 5 -4 16 -15 24 -11 7 -17
17 -13 20 3 4 -1 7 -10 7 -8 0 -19 9 -22 20 -4 11 -10 18 -14 16 -4 -3 -19 5
-32 17 -33 29 -65 47 -84 47 -8 0 -15 5 -15 10 0 6 -13 10 -30 10 -16 0 -30 4
-30 9 0 5 -13 8 -30 7 -16 -1 -30 3 -30 8 0 6 -5 4 -10 -4 -8 -12 -10 -12 -10
5 0 13 -3 16 -8 8 -14 -22 -32 2 -35 45 -1 23 -5 42 -9 42 -5 0 -8 9 -8 20 0
27 -41 107 -74 145 -14 17 -26 36 -26 44 0 8 -3 11 -7 8 -3 -4 -16 4 -27 16
-12 13 -29 26 -39 30 -9 3 -17 11 -17 17 0 6 -4 8 -10 5 -5 -3 -10 -1 -10 4 0
6 -7 11 -15 11 -8 0 -15 5 -15 10 0 6 -9 10 -20 10 -11 0 -20 4 -20 8 0 6 -82
36 -132 48 -5 1 -11 3 -15 4 -5 1 -16 1 -27 0 -10 -1 -22 3 -26 9 -3 6 -9 8
-13 5z m63 -151 c14 -6 31 -8 38 -6 6 3 12 0 12 -6 0 -6 6 -11 14 -11 18 0 91
-39 116 -62 10 -10 24 -18 29 -18 5 0 13 -9 16 -20 3 -11 10 -20 15 -20 5 0
12 -9 15 -20 4 -12 11 -17 18 -14 7 4 9 4 5 -1 -4 -4 -2 -17 4 -29 7 -11 11
-24 10 -28 -1 -5 2 -8 8 -8 5 0 10 -13 10 -29 0 -17 5 -33 10 -36 6 -4 7 -12
3 -18 -11 -17 -10 -41 2 -49 6 -5 5 -8 -2 -8 -8 0 -13 -15 -13 -40 0 -22 -5
-40 -11 -40 -5 0 -7 -5 -4 -11 9 -13 75 -9 94 5 11 8 13 8 7 -1 -8 -15 3 -17
24 -3 9 5 19 5 27 -2 9 -7 13 -7 13 2 0 9 4 9 17 -1 15 -12 16 -12 8 1 -6 12
-5 13 6 3 7 -7 26 -13 41 -13 15 0 28 -4 28 -8 0 -4 10 -9 22 -9 13 -1 24 -7
26 -13 2 -5 8 -8 13 -4 5 3 9 1 9 -4 0 -5 12 -14 26 -20 14 -7 22 -17 19 -22
-3 -6 0 -10 7 -10 15 0 48 -34 48 -49 0 -5 4 -11 9 -13 4 -1 17 -29 28 -60 30
-82 28 -178 -4 -248 -14 -30 -29 -56 -34 -58 -5 -2 -9 -11 -9 -19 0 -9 -2 -14
-5 -11 -3 3 -21 -9 -39 -26 -46 -42 -58 -50 -81 -54 -11 -2 -22 -8 -23 -13 -7
-19 -22 3 -22 32 0 16 -4 29 -8 29 -5 0 -9 6 -9 13 0 20 -37 107 -45 107 -5 0
-8 7 -8 15 0 8 -5 15 -12 15 -6 0 -9 3 -5 6 6 7 -11 29 -74 95 -26 27 -49 45
-53 42 -3 -3 -6 -1 -6 5 0 7 -16 20 -35 29 -19 9 -35 20 -35 25 0 4 -9 8 -20
8 -11 0 -20 4 -20 10 0 5 -7 7 -15 4 -8 -4 -15 -2 -15 4 0 5 -17 13 -37 17
-21 5 -45 10 -53 12 -8 1 -33 5 -54 8 -21 3 -43 8 -47 11 -5 3 -9 0 -9 -7 0
-30 -18 10 -24 51 -9 72 -16 103 -31 134 -8 16 -12 32 -9 37 3 5 1 9 -4 9 -5
0 -12 8 -15 18 -9 28 -39 73 -77 115 -19 22 -34 44 -32 49 1 5 -2 7 -8 3 -5
-3 -13 1 -16 9 -3 9 -12 16 -19 16 -7 0 -16 7 -19 16 -4 9 -9 14 -12 11 -4 -3
-16 3 -28 15 -11 11 -41 29 -65 41 l-44 21 34 28 c18 15 39 28 46 28 7 0 13 5
13 11 0 6 9 9 20 6 11 -3 18 0 17 7 -1 6 4 10 12 8 7 -1 18 1 25 6 6 5 19 8
28 7 10 -2 20 0 23 4 6 11 165 6 195 -6z m-1487 -115 c-3 -6 19 -11 30 -7 8 4
112 -62 110 -71 -2 -5 0 -9 5 -9 18 3 32 -2 32 -11 0 -6 9 -20 20 -32 24 -27
25 -29 2 -54 -10 -11 -16 -26 -14 -33 3 -8 0 -11 -5 -8 -5 3 -15 -9 -23 -26
-7 -18 -16 -34 -19 -37 -11 -9 -41 -104 -41 -128 0 -13 -4 -21 -8 -18 -5 3 -8
-12 -6 -32 2 -59 1 -60 -97 -58 -52 1 -91 -3 -93 -9 -3 -6 -9 -4 -15 5 -8 11
-11 11 -11 2 0 -10 -5 -10 -21 -1 -15 8 -19 8 -15 0 5 -7 -5 -11 -26 -12 -38
-1 -66 -6 -115 -23 -24 -8 -63 18 -63 42 0 7 -6 15 -14 18 -8 3 -13 13 -11 22
1 9 -1 22 -6 28 -5 6 -11 28 -15 50 -3 21 -8 43 -12 48 -3 5 0 6 6 2 9 -5 9 0
2 18 -6 17 -6 27 1 32 8 4 7 9 -2 15 -8 5 -9 9 -4 9 6 0 11 8 12 18 1 9 7 31
14 47 7 17 12 33 11 38 -1 4 3 7 8 7 5 0 9 3 7 8 -1 4 4 14 11 22 7 8 21 26
32 39 11 13 20 22 20 19 0 -4 14 7 31 23 17 16 40 29 50 29 10 0 19 5 19 11 0
5 4 8 9 5 4 -3 16 0 25 7 18 13 187 17 179 5z m832 -52 c28 -2 51 -5 53 -6 2
-2 14 -4 53 -9 5 0 8 -5 5 -9 -2 -4 5 -9 17 -9 40 -3 106 -29 119 -48 4 -5 8
-6 8 -1 0 5 9 -1 20 -14 11 -13 20 -19 20 -15 0 4 11 -4 25 -19 14 -15 25 -24
25 -20 0 4 10 -6 22 -22 13 -16 26 -30 30 -32 5 -2 8 -10 8 -18 0 -8 5 -14 10
-14 6 0 10 -7 10 -15 0 -8 5 -15 11 -15 5 0 7 -4 4 -10 -3 -5 -2 -10 3 -10 11
0 25 -37 23 -57 -1 -7 3 -13 9 -13 5 0 9 -3 9 -7 -1 -5 0 -10 1 -13 7 -14 6
-158 -1 -176 -4 -13 -3 -26 4 -34 9 -10 9 -11 0 -6 -9 5 -13 1 -13 -11 0 -14
7 -19 30 -18 17 0 30 2 30 5 0 3 41 6 90 7 50 1 88 -2 86 -5 -2 -4 7 -7 22 -6
14 0 37 -5 51 -12 27 -14 84 -36 88 -35 2 1 15 -9 29 -22 65 -55 107 -97 119
-118 7 -13 20 -37 29 -54 9 -16 16 -38 16 -48 0 -10 4 -16 8 -13 5 3 9 -12 11
-32 5 -68 7 -82 14 -88 3 -4 2 -15 -3 -25 -7 -12 -7 -20 0 -24 6 -4 7 -12 3
-18 -4 -7 -8 -16 -9 -22 -9 -50 -14 -67 -28 -93 -8 -16 -12 -32 -9 -36 4 -3 1
-6 -6 -6 -7 0 -9 -4 -6 -10 3 -5 2 -10 -3 -10 -5 0 -17 -16 -27 -35 -11 -19
-21 -33 -23 -31 -2 2 -18 -10 -35 -28 -46 -46 -156 -102 -180 -93 -9 3 -17 0
-20 -6 -3 -7 -24 -12 -51 -12 -25 0 -46 -2 -46 -6 0 -7 -32 -5 -46 3 -6 4 -22
1 -37 -7 -15 -8 -27 -10 -27 -5 0 4 -13 6 -30 4 -19 -3 -30 -1 -30 7 0 7 -4 8
-12 2 -7 -5 -42 -9 -78 -8 -36 1 -75 -2 -87 -7 -12 -4 -25 -3 -28 1 -6 10 -24
9 -42 -2 -7 -5 -13 -4 -13 2 0 5 -13 7 -30 5 -19 -3 -30 -1 -30 7 0 7 -4 8
-12 2 -7 -5 -42 -9 -78 -8 -36 1 -75 -2 -87 -7 -12 -4 -25 -3 -28 1 -6 10 -24
9 -42 -2 -7 -5 -13 -4 -13 2 0 5 -13 7 -30 5 -19 -3 -30 -1 -30 7 0 7 -4 8
-12 2 -7 -5 -32 -9 -55 -9 -24 1 -43 -2 -43 -7 0 -4 -6 -5 -12 -1 -19 12 -48
12 -48 0 0 -7 -3 -8 -8 -1 -9 12 -92 15 -92 3 0 -5 -6 -6 -12 -2 -19 12 -48
12 -48 0 0 -7 -3 -8 -8 -1 -9 14 -122 14 -122 0 0 -7 -3 -7 -8 0 -9 12 -55 14
-63 2 -3 -5 -13 -2 -21 7 -9 8 -19 12 -23 8 -8 -8 -195 -10 -190 -2 2 3 -19 4
-46 3 -51 -1 -122 12 -153 28 -14 8 -16 8 -10 -3 4 -7 -2 -5 -13 5 -11 9 -23
14 -26 10 -4 -3 -7 -2 -7 4 0 6 -13 16 -30 23 -16 7 -30 16 -30 21 0 5 -5 9
-11 9 -6 0 -27 16 -46 35 -19 19 -31 35 -27 35 5 0 -2 7 -14 16 -12 8 -20 20
-17 25 4 5 2 9 -4 9 -6 0 -14 12 -17 28 -4 15 -11 30 -17 33 -5 4 -10 25 -11
47 0 22 -5 38 -9 35 -5 -3 -7 34 -6 81 2 47 6 86 9 86 3 0 7 12 8 28 1 15 6
28 12 30 5 2 7 9 4 16 -3 8 2 16 10 19 9 4 13 13 10 22 -3 8 -1 15 5 15 6 0
11 7 11 15 0 8 4 15 10 15 5 0 9 3 8 8 -7 23 152 148 177 138 10 -3 12 0 8 11
-4 11 -2 14 5 9 7 -4 18 -4 25 1 13 8 31 13 62 16 11 1 23 7 27 12 5 6 8 5 8
-4 0 -9 4 -10 13 -4 19 15 257 15 276 0 12 -9 13 -9 7 1 -9 15 8 16 34 2 13
-7 21 -7 25 0 5 8 11 7 21 -1 11 -9 14 -8 14 2 0 12 2 12 9 1 7 -11 9 -11 14
2 4 9 1 16 -6 16 -8 0 -6 4 3 10 9 6 10 10 3 10 -9 0 -11 26 -9 98 4 114 7
133 24 150 7 8 10 18 7 23 -4 5 -1 9 4 9 6 0 11 4 11 10 0 30 108 160 133 160
4 0 5 5 1 12 -4 6 -3 8 3 5 6 -4 18 2 28 13 10 11 22 17 26 14 5 -3 9 0 9 6 0
6 5 8 10 5 6 -3 10 -1 10 4 0 6 5 11 12 11 6 0 20 8 31 18 15 12 18 13 12 2
-8 -13 -7 -13 8 -1 10 8 20 11 24 8 3 -4 13 -2 20 5 15 12 20 13 96 21 26 3
50 7 53 10 3 3 13 3 22 1 9 -2 40 -6 67 -8z"/>
<path d="M2030 2069 c0 -6 -32 -20 -55 -23 -5 0 -10 -6 -10 -12 0 -27 -34 -44
-84 -41 -28 1 -51 -1 -51 -5 0 -3 -10 -10 -22 -14 -35 -10 -77 -63 -83 -103
-4 -20 -8 -44 -9 -53 -2 -9 0 -18 5 -20 6 -2 0 -14 -13 -28 -13 -14 -22 -28
-21 -32 2 -4 -5 -4 -15 -1 -9 3 -14 3 -10 -1 4 -5 -1 -22 -10 -39 -24 -43 -17
-147 9 -147 5 0 9 -6 9 -14 0 -8 7 -17 16 -20 8 -3 12 -11 8 -17 -4 -7 -3 -9
3 -6 6 4 16 0 22 -7 7 -8 8 -17 3 -20 -7 -4 -9 -51 -2 -51 1 0 4 -13 6 -29 11
-63 84 -117 150 -111 23 2 32 -1 28 -8 -5 -9 -3 -9 6 0 14 13 43 6 34 -8 -3
-5 0 -9 6 -9 6 0 8 -4 5 -10 -3 -5 -1 -10 5 -10 7 0 25 -9 41 -21 16 -11 33
-18 38 -14 5 3 12 1 15 -4 3 -5 21 -6 40 -1 19 4 37 5 40 2 4 -3 6 0 6 6 0 7
7 12 15 12 8 0 15 5 15 10 0 6 6 10 13 10 8 0 18 10 23 21 8 17 20 22 57 24
25 1 44 -1 42 -5 -3 -4 13 2 35 12 22 11 40 24 40 30 0 5 4 7 9 4 8 -5 36 42
33 57 -1 4 1 7 6 7 4 0 8 26 8 57 0 31 5 58 11 60 6 2 19 11 29 19 10 9 12 13
4 9 -10 -4 -9 -2 3 8 9 8 17 19 17 26 0 6 4 11 8 11 7 0 15 39 13 65 -3 39 -8
57 -23 74 -9 11 -14 21 -12 24 2 2 -9 14 -26 27 -24 18 -27 26 -19 41 6 11 6
19 0 19 -5 0 -7 16 -5 35 1 19 -2 35 -7 35 -6 0 -7 5 -4 10 3 6 1 10 -4 10 -6
0 -11 6 -11 14 0 8 -9 18 -20 21 -11 4 -18 11 -15 16 4 5 -1 9 -9 9 -9 0 -16
4 -16 8 0 9 -7 11 -77 12 -48 2 -83 23 -83 51 0 7 -3 9 -6 6 -4 -3 -16 -1 -28
5 -11 7 -24 13 -28 14 -5 1 -9 3 -10 4 -6 6 -88 5 -88 -1z m113 -58 c15 -8 27
-23 27 -32 0 -21 -26 -43 -40 -34 -6 4 -10 3 -9 -2 4 -15 -13 -43 -22 -37 -5
3 -9 0 -9 -5 0 -19 -28 -12 -35 9 -3 11 -12 20 -20 20 -7 0 -15 7 -19 15 -3 8
-12 15 -20 15 -23 0 -7 39 23 55 33 18 88 16 124 -4z m-253 -66 c10 0 15 -11
15 -37 0 -21 -2 -38 -5 -38 -3 0 -6 -9 -7 -20 -1 -11 3 -20 8 -20 5 0 4 -6 -3
-14 -9 -9 -19 -11 -29 -5 -9 5 -31 4 -49 -1 -21 -6 -39 -6 -49 0 -9 5 -12 10
-7 10 5 0 3 7 -4 15 -7 9 -8 15 -2 15 5 0 13 12 16 26 8 30 30 56 40 47 3 -4
6 -1 6 5 0 7 9 12 20 12 11 0 20 6 20 13 0 7 3 8 8 2 4 -5 14 -10 22 -10z
m486 -43 c-3 -2 -1 -13 5 -24 16 -29 21 -68 9 -69 -39 -4 -65 -1 -63 8 1 5 -4
10 -12 10 -8 0 -12 -4 -9 -8 2 -4 0 -10 -6 -14 -5 -3 -10 -1 -10 5 0 7 -6 8
-19 1 -16 -9 -18 -7 -16 14 2 13 6 29 10 34 3 6 2 11 -2 11 -5 0 -9 18 -10 40
-1 22 2 38 7 35 5 -3 11 -1 15 4 3 6 27 -1 55 -16 28 -14 48 -28 46 -31z
m-350 -14 c4 4 4 2 1 -4 -4 -7 0 -17 8 -24 8 -7 15 -18 15 -25 0 -9 8 -11 23
-8 28 7 58 33 51 44 -3 5 2 9 11 9 9 0 13 5 10 10 -3 6 0 10 8 10 8 0 18 7 21
16 6 15 8 15 25 -1 11 -9 18 -26 16 -37 -11 -54 -8 -97 7 -111 9 -9 18 -13 21
-10 4 3 31 7 62 9 68 4 79 -11 41 -57 -14 -17 -26 -27 -26 -23 0 4 -12 -5 -27
-20 -24 -24 -25 -29 -13 -51 7 -14 15 -23 18 -20 7 6 60 -49 55 -57 -2 -5 0
-8 5 -8 13 0 11 -30 -2 -31 -6 -1 -27 0 -46 0 -83 3 -93 2 -101 -10 -4 -7 -5
-17 -3 -23 8 -23 10 -97 2 -102 -5 -3 -6 -10 -3 -15 4 -5 -1 -9 -10 -9 -16 0
-62 40 -81 70 -5 8 -19 21 -32 28 -20 11 -23 10 -32 -13 -5 -14 -15 -25 -21
-25 -7 0 -10 -3 -6 -6 7 -7 -18 -35 -29 -34 -4 1 -10 -3 -14 -9 -7 -13 -40 -4
-40 11 0 5 5 6 11 2 8 -4 8 0 0 14 -10 19 -8 73 4 92 8 13 -30 38 -50 33 -23
-5 -48 -6 -87 -4 -19 1 -28 6 -28 18 0 20 78 96 90 88 5 -3 5 9 -1 27 -5 18
-9 34 -9 35 0 2 -5 3 -11 3 -25 0 -88 85 -66 91 38 9 92 8 98 -3 7 -10 9 -10
9 2 0 13 1 13 10 0 9 -13 12 -13 21 3 6 9 14 15 19 12 4 -3 5 10 1 28 -11 47
-6 108 10 117 8 6 20 1 35 -15 12 -13 25 -21 30 -17z m-276 -169 c0 -6 18 -30
41 -52 30 -31 37 -43 26 -47 -18 -6 -68 -66 -61 -72 3 -3 -2 -8 -11 -11 -8 -4
-15 -2 -15 3 0 6 -7 10 -16 10 -8 0 -13 4 -10 9 3 5 -1 12 -10 15 -8 3 -12 11
-9 16 4 6 1 18 -7 27 -11 14 -11 16 2 8 13 -8 13 -7 1 8 -9 11 -10 17 -2 17 6
0 10 3 10 8 -3 17 2 30 21 50 23 24 40 29 40 11z m685 1 c-3 -5 2 -10 11 -10
10 0 15 -3 11 -6 -3 -4 0 -12 7 -20 7 -7 12 -24 11 -38 -2 -14 1 -26 7 -26 5
0 2 -7 -6 -16 -9 -8 -16 -20 -16 -25 0 -12 -32 -49 -44 -49 -5 0 -7 3 -3 6 3
3 -14 26 -39 50 -24 24 -40 44 -34 44 5 0 9 6 8 13 -2 6 3 11 10 10 6 -2 12 2
12 8 0 6 6 17 13 24 6 8 18 21 25 30 14 17 37 21 27 5z m-620 -280 c2 0 7 5
11 12 5 7 3 8 -6 3 -9 -6 -11 -4 -5 5 6 10 11 10 20 -3 7 -9 14 -15 16 -12 3
2 17 6 32 9 23 4 26 2 17 -13 -6 -12 -5 -22 3 -31 9 -10 9 -11 -2 -5 -10 5
-12 3 -8 -11 18 -58 18 -71 3 -77 -9 -4 -16 -1 -16 6 0 8 -4 7 -10 -3 -6 -9
-13 -11 -17 -5 -5 6 -15 11 -23 13 -8 2 -17 8 -18 13 -2 5 -8 7 -13 3 -5 -3
-9 1 -9 10 0 8 -4 16 -10 18 -5 2 -11 22 -14 45 -4 45 9 59 32 36 7 -7 15 -13
17 -13z m483 8 c7 -7 12 -8 12 -2 0 5 20 9 45 10 41 0 44 -2 43 -23 -1 -13 -6
-23 -11 -23 -4 0 -5 -5 -2 -10 8 -13 -34 -72 -46 -65 -5 4 -9 2 -9 -3 0 -6 -7
-13 -16 -16 -10 -4 -13 -2 -8 7 6 9 4 9 -7 1 -8 -6 -21 -11 -30 -11 -12 0 -15
13 -15 69 1 52 4 67 14 63 7 -3 10 0 7 5 -9 14 9 12 23 -2z m-185 -103 c19
-19 39 -35 46 -35 15 0 14 -28 -2 -44 -7 -7 -22 -18 -35 -25 -17 -9 -22 -9
-22 1 0 9 -3 9 -10 -2 -8 -13 -13 -13 -31 -2 -17 11 -20 11 -13 0 4 -7 -2 -5
-13 5 -11 9 -24 17 -30 17 -20 0 -25 34 -7 45 9 6 31 24 48 41 17 18 32 32 33
33 1 0 17 -15 36 -34z"/>
<path d="M2090 1761 c0 -5 -8 -8 -17 -8 -43 0 -55 -5 -83 -34 -16 -18 -30 -35
-31 -38 -6 -32 -4 -91 3 -91 5 0 6 -4 3 -10 -3 -5 -1 -10 6 -10 7 0 10 -3 6
-6 -8 -8 18 -34 33 -34 6 0 9 -4 6 -8 -2 -4 10 -9 27 -10 17 -2 34 -7 38 -13
4 -7 9 -5 12 5 4 9 12 13 20 11 16 -7 63 32 81 67 17 33 12 91 -10 121 -20 27
-94 72 -94 58z"/>
<path d="M2808 1781 c-28 -27 -27 -67 1 -98 11 -12 17 -24 14 -27 -4 -3 -1 -6
4 -6 15 0 65 -90 65 -117 0 -13 3 -21 7 -19 8 5 5 -59 -4 -73 -3 -6 -2 -11 3
-11 9 0 -5 -52 -21 -77 -5 -7 -5 -18 -1 -25 4 -7 3 -8 -4 -4 -8 5 -12 0 -12
-13 0 -12 -6 -21 -12 -21 -9 0 -8 -4 2 -10 13 -9 13 -10 0 -10 -10 0 -11 -3
-4 -8 6 -4 10 -15 8 -25 -1 -9 1 -15 6 -12 5 3 10 0 12 -7 2 -6 20 -12 39 -12
34 -1 61 12 52 27 -2 4 1 7 7 7 6 0 8 5 5 10 -3 6 -1 10 5 10 6 0 8 5 5 10 -3
6 -1 10 6 10 7 0 9 3 6 7 -4 3 -3 11 2 17 6 6 11 23 13 36 2 14 7 30 10 36 9
14 7 174 -2 174 -4 0 -6 13 -5 30 1 16 -2 27 -6 24 -4 -2 -10 9 -14 26 -4 16
-11 30 -16 30 -6 0 -8 4 -5 9 3 4 -6 21 -19 37 -14 16 -25 35 -25 43 0 8 -3
11 -6 8 -4 -4 -15 2 -24 13 -22 26 -70 31 -92 11z"/>
<path d="M380 2560 c-9 -14 -16 -34 -14 -45 4 -30 54 -65 92 -65 17 0 32 -4
32 -8 0 -4 12 -9 26 -10 14 -1 31 -5 37 -9 7 -4 18 -8 27 -9 8 -1 34 -6 58
-12 33 -8 46 -7 56 4 8 7 17 10 21 6 5 -4 5 -1 1 5 -4 7 -3 20 2 30 20 35 -21
80 -78 85 -14 2 -28 7 -32 13 -4 5 -17 10 -30 10 -13 0 -28 3 -34 7 -6 4 -25
9 -43 10 -17 1 -31 6 -31 10 0 4 -16 6 -36 5 -26 -1 -41 -9 -54 -27z"/>
<path d="M577 2124 c-1 -1 -20 -5 -42 -8 -144 -23 -158 -26 -177 -44 -21 -18
-23 -41 -7 -76 7 -14 17 -22 25 -19 8 3 14 0 14 -5 0 -6 11 -9 25 -6 14 2 36
6 50 8 13 3 29 7 35 11 5 3 10 0 10 -7 0 -8 3 -9 8 -3 4 6 18 11 32 13 46 5
55 7 69 16 11 7 12 6 6 -5 -7 -11 -6 -12 7 -2 8 7 18 10 21 6 4 -3 7 -1 7 5 0
7 5 11 12 10 17 -4 37 74 20 80 -7 2 -9 9 -6 14 4 6 2 8 -4 4 -6 -3 -14 -2
-17 4 -5 9 -79 12 -88 4z"/>
</g>
</svg>
