<svg xmlns="http://www.w3.org/2000/svg" viewBox="0 0 512 512"><path d="M507.834 301.608l-54.77-48.312 52.832-50.4a7.46 7.46 0 0 0 2.099-7.189c-.642-2.597-2.63-4.655-5.21-5.4l-70.316-20.292 25.988-68.056c.955-2.5.495-5.316-1.204-7.39a7.55 7.55 0 0 0-7.038-2.657l-72.274 11.652-5.878-72.56c-.216-2.666-1.846-5.015-4.275-6.16a7.57 7.57 0 0 0-7.504.601l-60.266 41.342-36.61-63.044C262.064 1.426 259.58 0 256.89 0s-5.174 1.426-6.52 3.742L208.347 76.1l-72.7-41.953c-2.327-1.343-5.197-1.35-7.528-.018s-3.773 3.8-3.78 6.473l-.176 72.795-72.965-6.014a7.55 7.55 0 0 0-6.807 3.194c-1.533 2.197-1.77 5.04-.622 7.46L75.02 183.88l-68.513 25.68a7.5 7.5 0 0 0-4.773 5.789c-.438 2.638.575 5.308 2.656 7.003L61 268.506l-50.813 52.4c-1.866 1.925-2.56 4.694-1.816 7.264s2.8 4.55 5.42 5.194l71.055 17.55-23.295 69.01c-.856 2.535-.286 5.33 1.494 7.336s4.502 2.913 7.137 2.382l71.76-14.443 8.72 72.278c.32 2.655 2.04 4.938 4.513 6s5.323.712 7.475-.89l58.596-43.647 39.055 59.566c1.382 2.18 3.79 3.492 6.367 3.492l.295-.006c2.687-.104 5.115-1.626 6.368-3.992l34.107-62.405 61.84 38.974c2.273 1.432 5.137 1.55 7.522.3s3.92-3.65 4.03-6.322l3.03-72.734 72.674 8.84c2.664.324 5.3-.79 6.928-2.927a7.45 7.45 0 0 0 .914-7.43L435.75 337.3l69.465-23.003c2.552-.845 4.456-2.98 4.997-5.6a7.46 7.46 0 0 0-2.378-7.1z" fill="#ffa600"/><ellipse cx="254.35" cy="254.691" rx="155.069" ry="154.949" fill="#ffdb2d"/><path d="M254.354 99.743a156.92 156.92 0 0 0-11.543.428c80.25 5.9 143.525 72.825 143.525 154.52S323.06 403.31 242.81 409.213c3.81.28 7.66.428 11.543.428 85.64 0 155.068-69.373 155.068-154.948s-69.427-154.95-155.068-154.95z" fill="#ffca00"/></svg>