<svg xmlns="http://www.w3.org/2000/svg" xmlns:xlink="http://www.w3.org/1999/xlink" width="64" height="64" version="1.1" viewbox="0 0 64 64"><defs><filter id="blur" width="200%" height="200%"><feGaussianBlur in="SourceAlpha" stdDeviation="3"/><feOffset dx="0" dy="4" result="offsetblur"/><feComponentTransfer><feFuncA slope=".05" type="linear"/></feComponentTransfer><feMerge><feMergeNode/><feMergeNode in="SourceGraphic"/></feMerge></filter><style type="text/css">@keyframes am-weather-cloud-1{0%{-webkit-transform:translate(-5px,0);-moz-transform:translate(-5px,0);-ms-transform:translate(-5px,0);transform:translate(-5px,0)}50%{-webkit-transform:translate(10px,0);-moz-transform:translate(10px,0);-ms-transform:translate(10px,0);transform:translate(10px,0)}}@keyframes am-weather-cloud-2{0%{-webkit-transform:translate(0,0);-moz-transform:translate(0,0);-ms-transform:translate(0,0);transform:translate(0,0)}50%{-webkit-transform:translate(2px,0);-moz-transform:translate(2px,0);-ms-transform:translate(2px,0);transform:translate(2px,0)}}@keyframes am-weather-sun{0%{-webkit-transform:rotate(0deg);-moz-transform:rotate(0deg);-ms-transform:rotate(0deg);transform:rotate(0deg)}}@keyframes am-weather-sun-shiny{0%{stroke-dasharray:3px 10px;stroke-dashoffset:0}50%{stroke-dasharray:.1px 10px;stroke-dashoffset:-1px}}@keyframes am-weather-moon{0%{-webkit-transform:rotate(0deg);-moz-transform:rotate(0deg);-ms-transform:rotate(0deg);transform:rotate(0deg)}50%{-webkit-transform:rotate(15deg);-moz-transform:rotate(15deg);-ms-transform:rotate(15deg);transform:rotate(15deg)}}@keyframes am-weather-moon-star-1{0%{opacity:0}}@keyframes am-weather-moon-star-2{0%{opacity:0}}@keyframes am-weather-rain{0%{stroke-dashoffset:0}}@keyframes am-weather-snow{0%{-webkit-transform:translateX(0) translateY(0);-moz-transform:translateX(0) translateY(0);-ms-transform:translateX(0) translateY(0);transform:translateX(0) translateY(0)}33.33%{-webkit-transform:translateX(-1.2px) translateY(2px);-moz-transform:translateX(-1.2px) translateY(2px);-ms-transform:translateX(-1.2px) translateY(2px);transform:translateX(-1.2px) translateY(2px)}66.66%{-webkit-transform:translateX(1.4px) translateY(4px);-moz-transform:translateX(1.4px) translateY(4px);-ms-transform:translateX(1.4px) translateY(4px);transform:translateX(1.4px) translateY(4px);opacity:1}}@keyframes am-weather-snow-reverse{0%{-webkit-transform:translateX(0) translateY(0);-moz-transform:translateX(0) translateY(0);-ms-transform:translateX(0) translateY(0);transform:translateX(0) translateY(0)}33.33%{-webkit-transform:translateX(1.2px) translateY(2px);-moz-transform:translateX(1.2px) translateY(2px);-ms-transform:translateX(1.2px) translateY(2px);transform:translateX(1.2px) translateY(2px)}66.66%{-webkit-transform:translateX(-1.4px) translateY(4px);-moz-transform:translateX(-1.4px) translateY(4px);-ms-transform:translateX(-1.4px) translateY(4px);transform:translateX(-1.4px) translateY(4px);opacity:1}}.am-weather-cloud-1,.am-weather-cloud-2{-webkit-animation-name:am-weather-cloud-1;-moz-animation-name:am-weather-cloud-1;animation-name:am-weather-cloud-1;-webkit-animation-duration:7s;-moz-animation-duration:7s;animation-duration:7s;-webkit-animation-timing-function:linear;-moz-animation-timing-function:linear;animation-timing-function:linear;-webkit-animation-iteration-count:infinite;-moz-animation-iteration-count:infinite;animation-iteration-count:infinite}.am-weather-cloud-2{-webkit-animation-name:am-weather-cloud-2;-moz-animation-name:am-weather-cloud-2;animation-name:am-weather-cloud-2;-webkit-animation-duration:3s;-moz-animation-duration:3s;animation-duration:3s}</style></defs><g id="cloudy" filter="url(#blur)"><g><g class="am-weather-cloud-1"><path fill="#91C0F8" stroke="#fff" stroke-linejoin="round" stroke-width="1.2" d="M47.7,35.4 c0-4.6-3.7-8.2-8.2-8.2c-1,0-1.9,0.2-2.8,0.5c-0.3-3.4-3.1-6.2-6.6-6.2c-3.7,0-6.7,3-6.7,6.7c0,0.8,0.2,1.6,0.4,2.3 c-0.3-0.1-0.7-0.1-1-0.1c-3.7,0-6.7,3-6.7,6.7c0,3.6,2.9,6.6,6.5,6.7l17.2,0C44.2,43.3,47.7,39.8,47.7,35.4z" transform="translate(20,10) translate(-10,-8), scale(0.6)"/></g><g class="am-weather-cloud-2"><path fill="#57A0EE" stroke="#fff" stroke-linejoin="round" stroke-width="1.2" d="M47.7,35.4 c0-4.6-3.7-8.2-8.2-8.2c-1,0-1.9,0.2-2.8,0.5c-0.3-3.4-3.1-6.2-6.6-6.2c-3.7,0-6.7,3-6.7,6.7c0,0.8,0.2,1.6,0.4,2.3 c-0.3-0.1-0.7-0.1-1-0.1c-3.7,0-6.7,3-6.7,6.7c0,3.6,2.9,6.6,6.5,6.7l17.2,0C44.2,43.3,47.7,39.8,47.7,35.4z" transform="translate(20,10) translate(-20,-11)"/></g></g></g></svg>