<svg xmlns="http://www.w3.org/2000/svg" xmlns:xlink="http://www.w3.org/1999/xlink" width="64" height="64" version="1.1" viewbox="0 0 64 64"><defs><filter id="blur" width="200%" height="200%"><feGaussianBlur in="SourceAlpha" stdDeviation="3"/><feOffset dx="0" dy="4" result="offsetblur"/><feComponentTransfer><feFuncA slope=".05" type="linear"/></feComponentTransfer><feMerge><feMergeNode/><feMergeNode in="SourceGraphic"/></feMerge></filter><style type="text/css">@keyframes am-weather-cloud-2{0%{-webkit-transform:translate(0,0);-moz-transform:translate(0,0);-ms-transform:translate(0,0);transform:translate(0,0)}50%{-webkit-transform:translate(2px,0);-moz-transform:translate(2px,0);-ms-transform:translate(2px,0);transform:translate(2px,0)}}@keyframes am-weather-sun{0%{-webkit-transform:rotate(0deg);-moz-transform:rotate(0deg);-ms-transform:rotate(0deg);transform:rotate(0deg)}}@keyframes am-weather-sun-shiny{0%{stroke-dasharray:3px 10px;stroke-dashoffset:0}50%{stroke-dasharray:.1px 10px;stroke-dashoffset:-1px}}.am-weather-cloud-2,.am-weather-sun{-webkit-animation-name:am-weather-cloud-2;-moz-animation-name:am-weather-cloud-2;animation-name:am-weather-cloud-2;-webkit-animation-duration:3s;-moz-animation-duration:3s;animation-duration:3s;-webkit-animation-timing-function:linear;-moz-animation-timing-function:linear;animation-timing-function:linear;-webkit-animation-iteration-count:infinite;-moz-animation-iteration-count:infinite;animation-iteration-count:infinite}.am-weather-sun{-webkit-animation-name:am-weather-sun;-moz-animation-name:am-weather-sun;-ms-animation-name:am-weather-sun;animation-name:am-weather-sun;-webkit-animation-duration:9s;-moz-animation-duration:9s;-ms-animation-duration:9s;animation-duration:9s;-ms-animation-timing-function:linear;-ms-animation-iteration-count:infinite}</style></defs><g id="cloudy-day-3" filter="url(#blur)"><g><g transform="translate(20,10) translate(0,16)"><g class="am-weather-sun"><g><line x1="0" x2="0" y1="0" y2="3" fill="none" stroke="orange" stroke-linecap="round" stroke-width="2" transform="translate(0,9)"/></g><g transform="rotate(45)"><line x1="0" x2="0" y1="0" y2="3" fill="none" stroke="orange" stroke-linecap="round" stroke-width="2" transform="translate(0,9)"/></g><g transform="rotate(90)"><line x1="0" x2="0" y1="0" y2="3" fill="none" stroke="orange" stroke-linecap="round" stroke-width="2" transform="translate(0,9)"/></g><g transform="rotate(135)"><line x1="0" x2="0" y1="0" y2="3" fill="none" stroke="orange" stroke-linecap="round" stroke-width="2" transform="translate(0,9)"/></g><g transform="rotate(180)"><line x1="0" x2="0" y1="0" y2="3" fill="none" stroke="orange" stroke-linecap="round" stroke-width="2" transform="translate(0,9)"/></g><g transform="rotate(225)"><line x1="0" x2="0" y1="0" y2="3" fill="none" stroke="orange" stroke-linecap="round" stroke-width="2" transform="translate(0,9)"/></g><g transform="rotate(270)"><line x1="0" x2="0" y1="0" y2="3" fill="none" stroke="orange" stroke-linecap="round" stroke-width="2" transform="translate(0,9)"/></g><g transform="rotate(315)"><line x1="0" x2="0" y1="0" y2="3" fill="none" stroke="orange" stroke-linecap="round" stroke-width="2" transform="translate(0,9)"/></g></g><circle cx="0" cy="0" r="5" fill="orange" stroke="orange" stroke-width="2"/></g><g class="am-weather-cloud-2"><path fill="#57A0EE" stroke="#fff" stroke-linejoin="round" stroke-width="1.2" d="M47.7,35.4c0-4.6-3.7-8.2-8.2-8.2c-1,0-1.9,0.2-2.8,0.5c-0.3-3.4-3.1-6.2-6.6-6.2c-3.7,0-6.7,3-6.7,6.7c0,0.8,0.2,1.6,0.4,2.3 c-0.3-0.1-0.7-0.1-1-0.1c-3.7,0-6.7,3-6.7,6.7c0,3.6,2.9,6.6,6.5,6.7l17.2,0C44.2,43.3,47.7,39.8,47.7,35.4z" transform="translate(20,10) translate(-20,-11)"/></g></g></g></svg>