<svg xmlns="http://www.w3.org/2000/svg" xmlns:xlink="http://www.w3.org/1999/xlink" width="64" height="64" version="1.1" viewbox="0 0 64 64"><defs><filter id="blur" width="200%" height="200%"><feGaussianBlur in="SourceAlpha" stdDeviation="3"/><feOffset dx="0" dy="4" result="offsetblur"/><feComponentTransfer><feFuncA slope=".05" type="linear"/></feComponentTransfer><feMerge><feMergeNode/><feMergeNode in="SourceGraphic"/></feMerge></filter><style type="text/css">@keyframes am-weather-rain{0%{stroke-dashoffset:0}}.am-weather-rain-1,.am-weather-rain-2{-webkit-animation-name:am-weather-rain;-moz-animation-name:am-weather-rain;-ms-animation-name:am-weather-rain;animation-name:am-weather-rain;-webkit-animation-duration:8s;-moz-animation-duration:8s;-ms-animation-duration:8s;animation-duration:8s;-webkit-animation-timing-function:linear;-moz-animation-timing-function:linear;-ms-animation-timing-function:linear;animation-timing-function:linear;-webkit-animation-iteration-count:infinite;-moz-animation-iteration-count:infinite;-ms-animation-iteration-count:infinite;animation-iteration-count:infinite}.am-weather-rain-2{-webkit-animation-delay:.25s;-moz-animation-delay:.25s;-ms-animation-delay:.25s;animation-delay:.25s}</style></defs><g id="rainy-7" filter="url(#blur)"><g><g><path fill="#57A0EE" stroke="#fff" stroke-linejoin="round" stroke-width="1.2" d="M47.7,35.4c0-4.6-3.7-8.2-8.2-8.2c-1,0-1.9,0.2-2.8,0.5c-0.3-3.4-3.1-6.2-6.6-6.2c-3.7,0-6.7,3-6.7,6.7c0,0.8,0.2,1.6,0.4,2.3 c-0.3-0.1-0.7-0.1-1-0.1c-3.7,0-6.7,3-6.7,6.7c0,3.6,2.9,6.6,6.5,6.7l17.2,0C44.2,43.3,47.7,39.8,47.7,35.4z" transform="translate(20,10) translate(-20,-11)"/></g></g><g transform="translate(31,46), rotate(10)"><line x1="0" x2="0" y1="0" y2="8" fill="none" stroke="#91C0F8" stroke-dasharray=".1 7" stroke-linecap="round" stroke-width="3" class="am-weather-rain-1" transform="translate(-5,1)"/><line x1="0" x2="0" y1="0" y2="8" fill="none" stroke="#91C0F8" stroke-dasharray=".1 7" stroke-linecap="round" stroke-width="3" class="am-weather-rain-2" transform="translate(0,-1)"/><line x1="0" x2="0" y1="0" y2="8" fill="none" stroke="#91C0F8" stroke-dasharray=".1 7" stroke-linecap="round" stroke-width="3" class="am-weather-rain-1" transform="translate(5,0)"/></g></g></svg>