<svg xmlns="http://www.w3.org/2000/svg" xmlns:xlink="http://www.w3.org/1999/xlink" width="64" height="64" version="1.1" viewbox="0 0 64 64"><defs><filter id="blur" width="200%" height="200%"><feGaussianBlur in="SourceAlpha" stdDeviation="3"/><feOffset dx="0" dy="4" result="offsetblur"/><feComponentTransfer><feFuncA slope=".05" type="linear"/></feComponentTransfer><feMerge><feMergeNode/><feMergeNode in="SourceGraphic"/></feMerge></filter><style type="text/css">@keyframes am-weather-cloud-1{0%{-webkit-transform:translate(-5px,0);-moz-transform:translate(-5px,0);-ms-transform:translate(-5px,0);transform:translate(-5px,0)}50%{-webkit-transform:translate(10px,0);-moz-transform:translate(10px,0);-ms-transform:translate(10px,0);transform:translate(10px,0)}}@keyframes am-weather-cloud-2{0%{-webkit-transform:translate(0,0);-moz-transform:translate(0,0);-ms-transform:translate(0,0);transform:translate(0,0)}50%{-webkit-transform:translate(2px,0);-moz-transform:translate(2px,0);-ms-transform:translate(2px,0);transform:translate(2px,0)}}@keyframes am-weather-stroke{0%,12%,16%,20%,24%,28%,4%,8%{-webkit-transform:translate(0,0);-moz-transform:translate(0,0);-ms-transform:translate(0,0);transform:translate(0,0)}10%,14%,18%,2%{-webkit-transform:translate(.3px,0);-moz-transform:translate(.3px,0);-ms-transform:translate(.3px,0);transform:translate(.3px,0)}6%{-webkit-transform:translate(.5px,.4px);-moz-transform:translate(.5px,.4px);-ms-transform:translate(.5px,.4px);transform:translate(.5px,.4px)}22%{-webkit-transform:translate(1px,0);-moz-transform:translate(1px,0);-ms-transform:translate(1px,0);transform:translate(1px,0)}26%{-webkit-transform:translate(-1px,0);-moz-transform:translate(-1px,0);-ms-transform:translate(-1px,0);transform:translate(-1px,0)}40%{fill:orange;-webkit-transform:translate(0,0);-moz-transform:translate(0,0);-ms-transform:translate(0,0);transform:translate(0,0)}65%{fill:#fff;-webkit-transform:translate(-1px,5px);-moz-transform:translate(-1px,5px);-ms-transform:translate(-1px,5px);transform:translate(-1px,5px)}61%{fill:orange}}.am-weather-cloud-1,.am-weather-stroke{-webkit-animation-name:am-weather-cloud-1;-moz-animation-name:am-weather-cloud-1;animation-name:am-weather-cloud-1;-webkit-animation-duration:7s;-moz-animation-duration:7s;animation-duration:7s;-webkit-animation-timing-function:linear;-moz-animation-timing-function:linear;animation-timing-function:linear;-webkit-animation-iteration-count:infinite;-moz-animation-iteration-count:infinite;animation-iteration-count:infinite}.am-weather-stroke{-webkit-animation-name:am-weather-stroke;-moz-animation-name:am-weather-stroke;animation-name:am-weather-stroke;-webkit-animation-duration:1.11s;-moz-animation-duration:1.11s;animation-duration:1.11s}</style></defs><g id="thunder" filter="url(#blur)"><g><g class="am-weather-cloud-1"><path fill="#91C0F8" stroke="#fff" stroke-linejoin="round" stroke-width="1.2" d="M47.7,35.4 c0-4.6-3.7-8.2-8.2-8.2c-1,0-1.9,0.2-2.8,0.5c-0.3-3.4-3.1-6.2-6.6-6.2c-3.7,0-6.7,3-6.7,6.7c0,0.8,0.2,1.6,0.4,2.3 c-0.3-0.1-0.7-0.1-1-0.1c-3.7,0-6.7,3-6.7,6.7c0,3.6,2.9,6.6,6.5,6.7l17.2,0C44.2,43.3,47.7,39.8,47.7,35.4z" transform="translate(20,10) translate(-10,-6), scale(0.6)"/></g><g><path fill="#57A0EE" stroke="#fff" stroke-linejoin="round" stroke-width="1.2" d="M47.7,35.4 c0-4.6-3.7-8.2-8.2-8.2c-1,0-1.9,0.2-2.8,0.5c-0.3-3.4-3.1-6.2-6.6-6.2c-3.7,0-6.7,3-6.7,6.7c0,0.8,0.2,1.6,0.4,2.3 c-0.3-0.1-0.7-0.1-1-0.1c-3.7,0-6.7,3-6.7,6.7c0,3.6,2.9,6.6,6.5,6.7l17.2,0C44.2,43.3,47.7,39.8,47.7,35.4z" transform="translate(20,10) translate(-20,-11)"/></g><g transform="translate(20,10) translate(-9,28), scale(1.2)"><polygon fill="orange" stroke="#fff" stroke-width="1" points="14.3 -2.9 20.5 -2.9 16.4 4.3 20.3 4.3 11.5 14.6 14.9 6.9 11.1 6.9" class="am-weather-stroke"/></g></g></g></svg>